<?xml version="1.0" encoding="UTF-8" standalone="no"?>
<!-- Created with Inkscape (http://www.inkscape.org/) -->

<svg
   xmlns:dc="http://purl.org/dc/elements/1.1/"
   xmlns:cc="http://creativecommons.org/ns#"
   xmlns:rdf="http://www.w3.org/1999/02/22-rdf-syntax-ns#"
   xmlns:svg="http://www.w3.org/2000/svg"
   xmlns="http://www.w3.org/2000/svg"
   xmlns:xlink="http://www.w3.org/1999/xlink"
   xmlns:sodipodi="http://sodipodi.sourceforge.net/DTD/sodipodi-0.dtd"
   xmlns:inkscape="http://www.inkscape.org/namespaces/inkscape"
   width="376.83118"
   height="342.57169"
   id="svg2835"
   sodipodi:version="0.32"
   inkscape:version="0.48.3.1 r9886"
   version="1.0"
   sodipodi:docname="Microphone.svg"
   inkscape:output_extension="org.inkscape.output.svg.inkscape"
   inkscape:export-filename="/home/roger/mis-dibujos/open/microfono.png"
   inkscape:export-xdpi="60"
   inkscape:export-ydpi="60">
  <defs
     id="defs2837">
    <linearGradient
       id="linearGradient5112">
      <stop
         id="stop5114"
         offset="0"
         style="stop-color: rgb(0, 0, 0); stop-opacity: 1;" />
      <stop
         style="stop-color: rgb(221, 227, 231); stop-opacity: 1;"
         offset="0.4860523"
         id="stop5116" />
      <stop
         style="stop-color: rgb(21, 21, 21); stop-opacity: 1;"
         offset="1"
         id="stop5118" />
    </linearGradient>
    <linearGradient
       inkscape:collect="always"
       id="linearGradient4981">
      <stop
         style="stop-color: rgb(236, 236, 236); stop-opacity: 1;"
         offset="0"
         id="stop4983" />
      <stop
         style="stop-color: rgb(236, 236, 236); stop-opacity: 0;"
         offset="1"
         id="stop4985" />
    </linearGradient>
    <linearGradient
       id="linearGradient4898">
      <stop
         id="stop4900"
         offset="0"
         style="stop-color: rgb(47, 42, 22); stop-opacity: 1;" />
      <stop
         style="stop-color: rgb(248, 245, 245); stop-opacity: 1;"
         offset="0.57396674"
         id="stop4902" />
      <stop
         id="stop4904"
         offset="1"
         style="stop-color: rgb(47, 42, 22); stop-opacity: 1;" />
    </linearGradient>
    <linearGradient
       inkscape:collect="always"
       id="linearGradient4822">
      <stop
         style="stop-color: rgb(77, 77, 77); stop-opacity: 1;"
         offset="0"
         id="stop4824" />
      <stop
         style="stop-color: rgb(77, 77, 77); stop-opacity: 0;"
         offset="1"
         id="stop4826" />
    </linearGradient>
    <linearGradient
       inkscape:collect="always"
       id="linearGradient4810">
      <stop
         style="stop-color: rgb(249, 249, 249); stop-opacity: 0.672535;"
         offset="0"
         id="stop4812" />
      <stop
         style="stop-color: rgb(249, 249, 249); stop-opacity: 0;"
         offset="1"
         id="stop4814" />
    </linearGradient>
    <linearGradient
       id="linearGradient4802">
      <stop
         style="stop-color: rgb(138, 127, 104); stop-opacity: 1;"
         offset="0"
         id="stop4804" />
      <stop
         style="stop-color: rgb(138, 127, 104); stop-opacity: 0;"
         offset="1"
         id="stop4806" />
    </linearGradient>
    <linearGradient
       id="linearGradient4054">
      <stop
         style="stop-color: rgb(47, 42, 22); stop-opacity: 1;"
         offset="0"
         id="stop4056" />
      <stop
         id="stop4062"
         offset="0.69707668"
         style="stop-color: rgb(248, 245, 245); stop-opacity: 1;" />
      <stop
         style="stop-color: rgb(47, 42, 22); stop-opacity: 1;"
         offset="1"
         id="stop4058" />
    </linearGradient>
    <linearGradient
       id="linearGradient4029">
      <stop
         style="stop-color: rgb(21, 21, 21); stop-opacity: 1;"
         offset="0"
         id="stop4031" />
      <stop
         id="stop4037"
         offset="0.4860523"
         style="stop-color: rgb(221, 227, 231); stop-opacity: 1;" />
      <stop
         id="stop4041"
         offset="1"
         style="stop-color: rgb(21, 21, 21); stop-opacity: 1;" />
    </linearGradient>
    <inkscape:perspective
       sodipodi:type="inkscape:persp3d"
       inkscape:vp_x="0 : 526.18109 : 1"
       inkscape:vp_y="0 : 1000 : 0"
       inkscape:vp_z="744.09448 : 526.18109 : 1"
       inkscape:persp3d-origin="372.04724 : 350.78739 : 1"
       id="perspective2843" />
    <inkscape:perspective
       id="perspective3011"
       inkscape:persp3d-origin="372.04724 : 350.78739 : 1"
       inkscape:vp_z="744.09448 : 526.18109 : 1"
       inkscape:vp_y="0 : 1000 : 0"
       inkscape:vp_x="0 : 526.18109 : 1"
       sodipodi:type="inkscape:persp3d" />
    <linearGradient
       inkscape:collect="always"
       xlink:href="#linearGradient4054"
       id="linearGradient4060"
       x1="314.83447"
       y1="379.7178"
       x2="314.83447"
       y2="455.2178"
       gradientUnits="userSpaceOnUse"
       gradientTransform="translate(-3,-288)"
       spreadMethod="reflect" />
    <pattern
       patternUnits="userSpaceOnUse"
       width="13.020803"
       height="12.188304"
       patternTransform="translate(369.865, 283.184)"
       id="pattern4074">
      <path
         transform="matrix(0.909771, 0, 0, 0.909771, -335.791, -264.665)"
         d="M 378.5,301.11218 L 374.34391,301.31074 L 372.09391,297.81074 L 374,294.11218 L 378.15609,293.91363 L 380.40609,297.41363 L 378.5,301.11218 z"
         inkscape:randomized="0"
         inkscape:rounded="0"
         inkscape:flatsided="true"
         sodipodi:arg2="1.5230576"
         sodipodi:arg1="0.99945885"
         sodipodi:r2="3.6033838"
         sodipodi:r1="4.1608291"
         sodipodi:cy="297.61218"
         sodipodi:cx="376.25"
         sodipodi:sides="6"
         id="path4070"
         style="opacity: 1; fill: rgb(47, 42, 22); fill-opacity: 1; fill-rule: nonzero; stroke: rgb(0, 0, 0); stroke-width: 6; stroke-linecap: square; stroke-linejoin: round; stroke-miterlimit: 4; stroke-dasharray: none; stroke-dashoffset: 0pt; stroke-opacity: 0;"
         sodipodi:type="star" />
    </pattern>
    <linearGradient
       inkscape:collect="always"
       xlink:href="#linearGradient4898"
       id="linearGradient4896"
       gradientUnits="userSpaceOnUse"
       gradientTransform="translate(40,-285)"
       x1="322.98642"
       y1="465.2178"
       x2="318.98642"
       y2="360.7178"
       spreadMethod="reflect" />
    <radialGradient
       inkscape:collect="always"
       xlink:href="#linearGradient4810"
       id="radialGradient4949"
       gradientUnits="userSpaceOnUse"
       cx="286.07248"
       cy="357.88602"
       fx="286.07248"
       fy="357.88602"
       r="60" />
    <radialGradient
       inkscape:collect="always"
       xlink:href="#linearGradient4822"
       id="radialGradient4951"
       gradientUnits="userSpaceOnUse"
       cx="300.68115"
       cy="435.79904"
       fx="300.68115"
       fy="435.79904"
       r="60" />
    <radialGradient
       inkscape:collect="always"
       xlink:href="#linearGradient4981"
       id="radialGradient4997"
       cx="213.77902"
       cy="-280.4866"
       fx="213.77902"
       fy="-280.4866"
       r="142.10938"
       gradientTransform="matrix(3.11105,-2.19895e-7,1.45707e-8,0.178999,-457.298,-122.28)"
       gradientUnits="userSpaceOnUse" />
    <radialGradient
       inkscape:collect="always"
       xlink:href="#linearGradient4981"
       id="radialGradient5037"
       gradientUnits="userSpaceOnUse"
       gradientTransform="matrix(3.11105,-2.19895e-7,1.45707e-8,0.178999,-474.298,-45.2796)"
       cx="213.77902"
       cy="-392.21875"
       fx="213.77902"
       fy="-392.21875"
       r="142.10938" />
    <linearGradient
       inkscape:collect="always"
       xlink:href="#linearGradient4029"
       id="linearGradient5110"
       gradientUnits="userSpaceOnUse"
       gradientTransform="matrix(1,0,0,-1,-18,678.027)"
       spreadMethod="pad"
       x1="154.66965"
       y1="373.0759"
       x2="155.71683"
       y2="415.04544" />
    <filter
       inkscape:collect="always"
       id="filter5184"
       color-interpolation-filters="sRGB">
      <feGaussianBlur
         inkscape:collect="always"
         stdDeviation="2.3536243"
         id="feGaussianBlur5186" />
    </filter>
    <linearGradient
       inkscape:collect="always"
       xlink:href="#linearGradient4029"
       id="linearGradient5190"
       gradientUnits="userSpaceOnUse"
       gradientTransform="matrix(1,0,0,-1,-18,678.027)"
       spreadMethod="pad"
       x1="154.66965"
       y1="373.0759"
       x2="155.71683"
       y2="415.04544" />
    <filter
       inkscape:collect="always"
       id="filter5214"
       x="-0.03230124"
       width="1.0646025"
       y="-0.42109379"
       height="1.8421876"
       color-interpolation-filters="sRGB">
      <feGaussianBlur
         inkscape:collect="always"
         stdDeviation="3.8034718"
         id="feGaussianBlur5216" />
    </filter>
    <radialGradient
       inkscape:collect="always"
       xlink:href="#linearGradient4810"
       id="radialGradient3074"
       gradientUnits="userSpaceOnUse"
       cx="286.07248"
       cy="357.88602"
       fx="286.07248"
       fy="357.88602"
       r="60" />
    <radialGradient
       inkscape:collect="always"
       xlink:href="#linearGradient4822"
       id="radialGradient3076"
       gradientUnits="userSpaceOnUse"
       cx="300.68115"
       cy="435.79904"
       fx="300.68115"
       fy="435.79904"
       r="60" />
    <linearGradient
       inkscape:collect="always"
       xlink:href="#linearGradient4054"
       id="linearGradient3078"
       gradientUnits="userSpaceOnUse"
       gradientTransform="translate(-3,-288)"
       spreadMethod="reflect"
       x1="314.83447"
       y1="379.7178"
       x2="314.83447"
       y2="455.2178" />
    <linearGradient
       inkscape:collect="always"
       xlink:href="#linearGradient4898"
       id="linearGradient3080"
       gradientUnits="userSpaceOnUse"
       gradientTransform="translate(40,-285)"
       spreadMethod="reflect"
       x1="322.98642"
       y1="465.2178"
       x2="318.98642"
       y2="360.7178" />
    <linearGradient
       inkscape:collect="always"
       xlink:href="#linearGradient4029"
       id="linearGradient3082"
       gradientUnits="userSpaceOnUse"
       gradientTransform="matrix(1,0,0,-1,-18,678.027)"
       spreadMethod="pad"
       x1="154.66965"
       y1="373.0759"
       x2="155.71683"
       y2="415.04544" />
  </defs>
  <sodipodi:namedview
     id="base"
     pagecolor="#ffffff"
     bordercolor="#666666"
     borderopacity="1.0"
     inkscape:pageopacity="0.0"
     inkscape:pageshadow="2"
     inkscape:zoom="1"
     inkscape:cx="133.97476"
     inkscape:cy="190.42992"
     inkscape:document-units="px"
     inkscape:current-layer="layer1"
     showgrid="false"
     showguides="true"
     inkscape:guide-bbox="true"
     inkscape:window-width="1250"
     inkscape:window-height="944"
     inkscape:window-x="22"
     inkscape:window-y="24"
     fit-margin-top="10"
     fit-margin-left="10"
     fit-margin-right="10"
     fit-margin-bottom="10"
     inkscape:window-maximized="0" />
  <metadata
     id="metadata2840">
    <rdf:RDF>
      <cc:Work
         rdf:about="">
        <dc:format>image/svg+xml</dc:format>
        <dc:type
           rdf:resource="http://purl.org/dc/dcmitype/StillImage" />
        <dc:title></dc:title>
      </cc:Work>
    </rdf:RDF>
  </metadata>
  <g
     inkscape:label="Capa 1"
     inkscape:groupmode="layer"
     id="layer1"
     transform="translate(-44.783955,53.489476)">
    <g
       id="g3041"
       transform="matrix(0.75038224,-0.66100416,0.66100416,0.75038224,-23.931517,184.42311)">
      <g
         transform="translate(59.0847,-276.544)"
         id="g4942">
        <path
           sodipodi:type="arc"
           style="fill:#8a7f68;fill-opacity:1;fill-rule:nonzero;stroke:none"
           id="path3226"
           sodipodi:cx="295"
           sodipodi:cy="395.21933"
           sodipodi:rx="60"
           sodipodi:ry="60"
           d="m 355,395.21933 c 0,33.13708 -26.86292,60 -60,60 -33.13708,0 -60,-26.86292 -60,-60 0,-33.13709 26.86292,-60 60,-60 33.13708,0 60,26.86291 60,60 z"
           transform="matrix(1.23214,0,0,1.23214,-49.4312,-86.9373)" />
        <path
           transform="matrix(1.23214,0,0,1.23214,-49.4312,-86.9373)"
           d="m 355,395.21933 c 0,33.13708 -26.86292,60 -60,60 -33.13708,0 -60,-26.86292 -60,-60 0,-33.13709 26.86292,-60 60,-60 33.13708,0 60,26.86291 60,60 z"
           sodipodi:ry="60"
           sodipodi:rx="60"
           sodipodi:cy="395.21933"
           sodipodi:cx="295"
           id="path4800"
           style="fill:url(#radialGradient3074);fill-opacity:1;fill-rule:nonzero;stroke:none"
           sodipodi:type="arc" />
        <path
           sodipodi:type="arc"
           style="fill:url(#radialGradient3076);fill-opacity:1;fill-rule:nonzero;stroke:none"
           id="path4818"
           sodipodi:cx="295"
           sodipodi:cy="395.21933"
           sodipodi:rx="60"
           sodipodi:ry="60"
           d="m 355,395.21933 c 0,33.13708 -26.86292,60 -60,60 -33.13708,0 -60,-26.86292 -60,-60 0,-33.13709 26.86292,-60 60,-60 33.13708,0 60,26.86291 60,60 z"
           transform="matrix(1.23214,0,0,1.23214,-49.4312,-86.9373)" />
        <path
           style="opacity:0.63028199;fill:#000000"
           d="m 320.80773,329.11634 c -2.13667,2.81307 3.78029,2.32208 0,0 z m -3.4375,1 c -3.81694,3.65022 3.27926,2.64997 0,0 z m 16.4375,1.5 c -5.15483,1.99925 4.49347,1.8449 0,0 z m -4.90625,0.5 c -5.4533,0.75689 2.6756,2.83054 1.03156,0.22857 l -1.03157,-0.22857 10e-6,0 z m -35.34375,0.0937 c -4.31196,1.44932 0.74409,2.08027 0,0 z m 28.59375,1 c -7.06713,0.008 6.62817,2.90748 1.3087,0.0327 l -1.30871,-0.0327 10e-6,0 z m -25.6875,0.90625 c -4.8583,0.88835 0.60656,5.57027 1.5081,0.28005 l -0.47217,-0.22191 -1.03594,-0.0581 10e-6,0 z m -9.375,0.15625 c -2.11963,1.39987 -4.33771,9.36703 0.19588,4.06837 3.27696,-1.05316 5.21208,-2.62155 0.24161,-2.44337 -2.08536,0.78323 -0.20429,-0.9194 -0.43749,-1.625 z m 49.53125,0 c 2.40743,2.75642 -5.12109,0.6642 -1.02658,3.72785 2.87911,0.99115 3.85654,-3.01586 1.02658,-3.72785 z m -57.9375,0.21875 c -3.48187,2.42075 0.6625,4.06084 0,0 z m 36.75,0.25 c -4.30433,1.19304 -3.54108,14.18796 1.90624,7.40625 2.19501,-3.30936 -4.81886,0.85411 -0.46866,-3.22067 -0.85743,-0.87477 -4.56429,-2.80043 0.12491,-2.18558 4.12056,1.34158 0.54309,-2.64089 -1.56249,-2 z m 14.1875,0.40625 c -3.18133,1.73084 5.30833,1.90089 -10e-6,0 l 10e-6,0 z m -46.625,0.21875 c -5.47799,2.95576 -0.69235,4.51438 0,0 z m 60.5,0.21875 c -4.90999,1.27303 1.18185,2.18642 -10e-6,0 l 10e-6,0 z m 4.9375,0.65625 c -3.17157,1.27763 4.62483,0.51749 0,0 z m -25.875,0.375 c -6.58988,2.58933 6.39613,4.14152 -10e-6,0 l 10e-6,0 z m 5.59375,1.09375 c -3.45902,3.54781 7.35637,2.12684 1.21874,0.125 l -1.21875,-0.125 10e-6,0 z m -38.0625,0.8125 c -6.44992,5.02473 7.69574,2.65409 4.4951,0.44646 -1.49969,-0.13508 -2.98607,-0.42746 -4.4951,-0.44646 z m -17.09375,0.0625 c -0.41174,0.21808 2.44897,2.3092 -1.36389,2.18188 -0.65735,6.18875 2.73145,-0.50794 4.61232,-0.46977 -0.78244,5.32849 2.03843,7.16508 5.04484,3.16174 -0.83063,4.49809 7.15945,0.10149 1.54879,3.9729 -5.08839,2.36318 5.24405,1.61236 2.84256,4.03391 -3.16636,-1.12701 -12.14323,-0.70793 -9.00015,4.09452 2.43363,0.1958 14.46042,0.20903 6.36961,1.70128 -3.84293,0.34945 -10.33945,1.24582 -8.70378,-3.16804 -3.44932,-1.18069 -13.68856,1.41433 -9.59895,6.01714 6.86113,0.54483 -2.82052,-0.27534 -0.49997,3.93868 -5.66464,-6.11896 -4.63171,8.40952 -5.49555,6.70053 -2.46096,-1.83448 -6.01173,-6.63166 -1.42398,-7.16578 0.003,5.57656 7.34215,-6.19498 0.19939,-3.96774 -3.63148,1.16285 -3.10336,-8.07128 -4.85424,-1.41733 -1.94381,7.76076 -2.79739,15.74417 -3.17793,23.71356 4.80673,1.05641 -5.03134,5.94111 -1.41642,10.455 -0.80123,4.42309 -3.29597,-10.02037 -5.08266,-8.1039 0,13.69047 0,27.38095 0,41.07142 0.85345,-3.77059 2.62033,-6.0382 2.87122,-0.89314 1.23121,4.80207 1.23292,11.5123 4.10598,15.06481 2.34029,-4.88684 3.17844,6.48303 4.99589,8.11623 0.30111,3.50565 6.60618,9.17003 7.90084,4.94804 2.81543,2.8851 4.43995,2.42016 5.52864,6.12839 2.4426,1.76114 2.9189,-6.17961 3.69303,-0.16691 1.89609,5.79191 6.31876,-2.44518 6.41336,3.34628 3.30856,1.75956 6.90855,1.52704 10.39851,3.0436 0.40618,-3.23656 2.9446,-6.4999 6.58818,-3.87919 1.18863,-4.34881 -0.4438,-12.65315 -6.62064,-9.89561 4.64281,-4.20108 8.36632,2.31685 13.78124,1.125 4.55324,0.90474 8.44548,0.15945 6.0258,-5.21045 -2.32135,-16.89311 -2.26209,-34.03038 -2.10634,-51.0512 -0.67718,-3.6111 2.69387,1.41623 2.50553,1.79257 -2.91851,3.09308 -1.27541,8.58294 -1.70623,12.74143 0.29522,2.16598 -1.21088,6.58791 2.35095,4.66286 3.2595,-0.59281 7.47287,-1.25092 3.89904,-4.68521 8.10751,1.67613 -1.26566,7.55886 -5.47153,6.89296 -0.65854,6.21709 0.6611,11.42002 0.0408,17.81388 0.45788,2.12793 -0.65091,6.38405 2.78582,4.4655 5.56978,-1.28228 1.2238,1.86968 -1.36554,2.10574 -1.51083,3.41623 3.28678,9.64901 2.57298,9.75317 -4.15153,0.61868 2.95318,6.64202 3.51865,1.00312 2.6833,-1.76444 -1.52342,6.22264 2.49065,1.66563 3.52424,4.43997 -10.83303,-0.77363 -5.84201,5.9926 1.65907,3.7651 2.71279,12.1173 7.95589,7.70526 -4.45856,-3.44246 8.81472,1.05967 6.17862,-2.74482 -7.22024,0.96897 4.42,-3.16007 3.26284,0.31718 1.99817,0.17577 6.5469,0.9746 3.69339,-1.46534 3.30436,-3.00659 9.63803,-3.53068 11.48881,-6.81918 -6.19999,2.27988 5.5304,-4.82735 -0.55934,-6.09195 5.97387,-1.53527 5.95096,-11.68333 1.02234,-10.61156 2.82875,-1.14644 7.72564,-0.58079 8.51877,-2.78719 -3.31628,3.63285 -4.52006,8.74543 -5.16689,13.08434 2.86504,-2.86664 4.73653,-2.93807 1.45801,0.6584 -6.36254,-0.30903 -3.36926,11.71721 -0.20548,3.58592 -1.5079,-2.46668 8.26634,-1.64804 4.17139,-4.73641 -5.21735,4.47261 6.65572,-8.44661 -1.42314,-7.381 1.38726,-0.91314 6.59199,-0.70695 7.625,-3.0625 -3.43059,3.97896 -5.78374,11.75152 -5.84375,15.25 3.15771,-2.37831 5.52119,-1.32978 1.39081,0.81152 -2.36213,0.39959 -6.8441,-1.06188 -5.70653,2.97876 4.69358,-0.90687 12.18692,-4.11963 7.72197,-8.50903 4.29863,-3.35002 -2.52789,-6.93461 4.1618,-6.05705 3.46593,-4.17956 2.12471,1.12311 -0.13274,2.47086 3.14592,2.22818 10.79982,-4.4664 4.42407,-0.72026 0.38109,-3.3761 -1.12564,-3.53877 0.92465,-7.10537 -2.55566,-6.04657 -4.1949,2.8943 -7.06527,4.63057 3.07808,-2.60829 3.65426,-11.78553 -1.71759,-8.54441 -0.22812,3.74242 -4.55556,8.85787 -1.66588,2.00699 1.41457,-8.29524 -8.42404,-5.1915 -7.33529,1.03742 1.13822,-4.82266 -4.12407,-12.30143 -8.83894,-7.74041 -0.21008,5.3888 2.80526,7.83468 6.1827,3.27166 -3.41823,3.15546 -4.62825,7.7802 -3.7379,12.32224 -0.97663,4.51701 5.83389,-2.19948 1.78074,2.00259 -2.3,3.09343 -10.29672,0.99503 -4.29195,-1.45914 6.18871,-7.08603 -8.12583,-14.38301 -6.92608,-3.63366 -1.11279,-1.94978 -1.62225,-9.69313 -5.72472,-10.44519 1.91242,-2.8672 12.1122,-1.33946 4.90313,1.82942 1.65868,5.49239 12.02605,-0.53785 5.40481,-5.19116 3.33081,-1.70995 11.14061,-2.74852 5.61361,-8.77516 4.95763,-1.10196 7.99936,-3.92764 4.05199,-8.65853 3.0529,-2.42858 7.30583,-5.02893 2.76158,-9.13598 2.7498,-0.33837 3.87754,5.86341 7.66478,4.42582 -1.4777,4.58261 -12.32494,2.62281 -6.62549,9.08892 1.57725,3.31836 5.67208,-1.65941 2.16959,2.99645 3.49213,7.63614 8.18965,-5.66607 3.29965,-5.83537 -2.59915,-0.14819 4.7361,-2.88437 6.79981,-3.74236 2.82748,-3.48505 4.82522,-1.09996 1.77993,1.91715 1.60193,3.92217 7.93976,-0.17976 8.34354,-1.55118 -1.67339,3.20913 0.71966,7.41466 1.70663,2.1148 1.96248,-3.58906 -3.78165,-11.65297 -5.04295,-5.54074 1.2718,2.00965 1.30161,7.81369 -0.83696,3.58358 0.68533,-4.47062 -1.90001,-5.96888 -4.47045,-7.7281 -5.01344,-1.48055 -0.13139,10.93754 -3.30297,4.10851 -3.22507,-2.89603 -4.41751,-6.54722 0.6184,-5.88323 3.74683,-2.13739 -0.21591,-8.4255 -2.87623,-7.21593 0.20652,-3.28749 2.17763,-1.91927 4.76946,-3.77005 -0.67041,-4.24261 -4.05147,-7.61696 -0.75374,-11.07803 -3.08801,-5.53529 0.58428,-3.46167 2.02995,0.58406 2.34158,4.38616 0.27972,-6.23733 2.39183,-0.89223 -1.45098,3.44722 -6.78837,4.91825 -2.57957,9.24085 1.74576,4.87253 8.88471,5.89954 9.64207,0.7904 1.25279,2.06938 -0.40897,5.42272 3.07179,6.45196 0.44742,2.82952 -0.80025,10.24471 -1.19417,3.34657 -0.5143,-2.55501 -4.20254,-1.29323 -1.36865,-3.6191 -7.48091,-6.95741 -2.79913,9.53997 -1.57147,6.50807 3.86738,-5.4199 -1.83465,5.21341 2.59375,3.03125 2.54898,-0.58361 6.05568,-5.96169 4.4375,-0.25 0.22223,8.18098 4.81911,-11.43299 1.29649,-2.7793 -1.76498,-4.72917 -3.38016,-9.0008 -1.06986,-13.15158 -0.54327,-3.76195 -5.39493,-4.89902 -2.90494,0.10822 1.27428,2.59607 0.28426,8.07507 -0.85294,2.41641 0.44415,-3.99872 -6.49938,-7.71432 0.562,-7.51289 6.10582,4.19006 4.48337,-7.40447 2.3755,-7.14336 -4.14268,1.6592 -4.90329,-8.9539 -4.46875,-9.90625 -4.4974,1.15308 0.58046,-6.96107 -2.8125,-4.5 -4.32629,1.04544 4.09462,8.9495 -1.96609,8.49833 -2.73108,1.65769 3.64072,0.72543 -1.00267,3.1028 0.42475,2.16416 3.5643,12.34904 3.29008,4.55395 3.38289,0.70772 0.75804,6.48328 -2.26061,5.34893 0.96,2.54825 3.85041,12.43384 0.46338,5.25247 -0.11833,-4.53357 -5.70202,-2.4123 -2.49284,-6.13148 4.22051,-3.53039 -2.87447,-14.11872 -9.0625,-9.53125 -1.48128,0.78284 -0.005,3.16605 -1.7272,-0.58815 6.81163,-0.67385 -1.02874,-11.7637 -6.22833,-9.90835 -4.5284,1.62938 4.4898,9.99855 3.62873,4.44285 5.93238,3.08481 -8.28549,6.15657 -0.70327,10.1262 1.18026,2.34296 7.1187,-2.40353 3.78787,2.43756 -3.76401,1.85249 -7.01548,4.48276 -2.10828,7.96846 2.44412,4.67295 2.41871,-4.52095 2.98827,0.68603 -4.14521,1.92707 -8.66774,8.30321 -1.41904,9.1479 4.30413,2.15801 -5.84213,4.51909 -8.84374,4.6875 5.03296,-1.43877 5.77571,-5.8765 1.8111,-8.91723 3.39098,2.28164 -2.45529,-3.7158 3.01606,-3.42091 1.15867,-3.56775 -4.09036,-6.9085 0.1432,-10.58541 -5.97858,-2.99656 1.1575,-10.93388 -4.68912,-12.5452 -0.24495,-1.35121 -7.80638,-4.84951 -11.29269,-1.401 1.62573,2.64441 0.279,4.51787 -0.6196,1.80317 -3.53995,0.92375 -11.33571,-2.74404 -3.26523,-1.99548 3.50087,0.38731 9.2916,-6.84675 6.20166,-8.97163 -5.88719,0.60487 -7.66895,-6.12713 -14.08108,-4.1657 -5.19015,0.8221 -13.39392,-3.56159 -16.73006,0.0421 3.55637,3.58031 0.99336,3.78097 -0.99425,6.71978 0.16096,2.61581 2.16741,-1.72836 3.99503,-0.68012 2.13697,-5.23617 6.70463,-3.27804 10.97047,-2.67176 2.24841,-2.53169 5.05128,-2.87996 2.56229,1.14465 2.8243,1.15121 9.96974,-0.12285 10.49704,3.02391 -6.88005,0.54334 -13.10494,-2.92815 -19.60801,-3.36207 -2.71914,3.35628 -6.27376,4.94517 -9.27759,7.67167 1.28331,3.69775 14.18578,-1.73391 7.45452,2.84247 -0.64991,1.30597 4.62777,2.05536 0.62345,3.15564 -1.99692,-0.74996 -7.70004,-5.72831 -7.92001,-2.07439 1.59758,1.61092 4.17741,4.27774 -0.21441,5.06068 -0.50036,3.38736 5.97021,5.07546 0.26476,6.62175 -1.22985,3.80971 0.0944,2.83505 2.37121,4.86132 -3.92218,0.87054 -4.72071,3.29726 -6.75,6.53125 -1.90669,1.01159 -4.04562,-2.59295 -5.75,-0.28125 -3.90018,-3.38376 -6.18593,2.79677 -8.28926,-3.49917 -3.04048,-1.87443 2.50366,-6.21382 -1.895,-9.02758 4.88257,1.01099 2.75239,-6.68043 -1.53449,-2.97325 -2.84597,0.74242 2.91856,2.26679 -1.6875,1.375 -2.63876,-1.11914 -8.60515,-1.95096 -2.0572,-2.80187 5.60254,0.68039 10.93027,-5.106 6.36305,-9.05126 5.92709,-0.02 0.2323,-3.44704 -3.11449,-1.7517 -4.70024,-2.82305 12.65275,-0.50972 4.75283,-6.4818 -8.30764,-2.00221 6.3895,-0.0724 1.94872,-5.89345 -1.95876,-5.22855 -10.26545,-6.34098 -15.08041,-7.61367 6.79853,-1.36891 -3.69808,-2.93626 -4.99999,-3.3125 z m 76.125,0.5625 c -4.04727,-0.18063 3.68995,2.92681 0.64202,5.68783 0.52216,5.80357 6.1894,-1.23236 3.70172,3.96842 -0.48209,2.48837 -7.78068,-5.54769 -5.09375,-0.15625 0.20341,4.83197 5.81645,4.16717 6.82601,-0.26869 2.31468,-0.83153 5.44064,7.29139 3.58024,1.23744 -3.2478,-7.00637 5.52,5.875 1.99646,-1.17861 1.11335,-3.28978 6.72891,3.56573 2.69348,-1.47157 -2.28099,-1.00791 -10.84292,-5.29773 -6.60917,0.0269 -1.45779,-1.4435 -8.52051,-1.90172 -4.05451,-3.31452 1.7212,-2.0766 -2.52612,-3.58759 -3.6825,-4.53093 z m -4.125,0.0937 c -8.46233,0.71822 4.02009,10.54919 1.76991,2.38328 -0.23048,-0.93681 -0.43485,-2.53117 -1.76991,-2.38328 z m -6.46875,0.875 c -5.57016,-0.0869 -7.769,8.53705 -0.34824,5.87676 3.44822,-1.17198 -5.0899,-6.73609 0.74854,-3.3489 1.15822,-0.5016 1.38546,-2.85508 -0.4003,-2.52786 z m 5.53125,0.0312 c 4.82154,1.7462 -0.54057,2.28715 -10e-6,0 l 10e-6,0 z m -21.875,0.75 c -2.94115,2.8847 -4.9539,6.62047 -10.05449,4.77683 -2.26019,3.12603 6.07385,2.03658 7.90968,2.72693 1.72672,-3.39892 3.66334,-2.12773 3.0097,0.92625 7.24787,3.51213 9.46983,-11.39478 3.56012,-6.31145 8.33269,4.57838 -11.09181,1.34727 -2.39091,-0.47357 0.45012,-1.09774 -1.21137,-1.66566 -2.0341,-1.64499 z m -27.65625,0.46875 c -3.75264,-0.16786 -5.88071,4.9033 -1.06251,1.9375 -0.0193,-0.1323 2.41206,-1.82647 1.06251,-1.9375 z m 62.53125,0.78125 c -0.54057,2.28716 4.82154,1.74618 -10e-6,0 l 10e-6,0 z m -89.375,1.125 c -3.27002,-0.0362 -8.19188,0.58964 -3.9753,2.93914 -0.0861,6.56386 2.52591,1.38309 2.60029,-1.62664 0.83766,0.48188 4.29361,-1.41985 1.37501,-1.3125 z m 27.125,1.3125 c -1.61665,4.12879 1.74146,3.91946 0,0 z m -23.4375,0.78125 c -3.60706,-1.44694 -6.29292,2.76072 -1.80259,2.86419 1.14933,-1.31469 6.65511,-3.26925 1.80258,-2.86419 l 10e-6,0 z m 70.71875,0.375 c -1.83155,2.23127 7.2519,6.59108 3.63595,0.97252 -0.9822,-0.85448 -2.38451,-1.03122 -3.63595,-0.97252 z m -55,1.40625 c 1.78749,1.97365 6.62982,5.29243 1.26672,3.89676 -1.26366,-0.68461 -4.15825,-3.04519 -1.26672,-3.89676 z m -12.375,0.5625 c -7.05832,-1.8322 -7.30437,8.24268 -1.34376,2.90625 1.19157,-3.67801 2.05913,3.43465 5.4375,-0.84375 3.41928,-2.04976 -3.38822,-1.75083 -4.09374,-2.0625 z m 57.40625,0.0625 c -5.32782,2.66019 8.79184,4.12155 3.3364,0.43679 -1.0767,-0.32602 -2.21013,-0.50084 -3.3364,-0.43679 z m -74.5625,0.34375 c -2.68114,1.83461 -0.96257,4.8813 -3.07436,5.34924 3.17451,1.41765 3.79748,1.44454 2.57435,3.58826 2.99384,4.06958 3.57196,-3.625 6.09376,-5.3125 0.13056,1.34424 -2.06596,6.91179 -0.17439,5.06004 3.92128,-2.19228 4.68062,-6.95913 -1.35687,-5.93504 -2.85817,0.33183 -3.4274,-0.85028 -4.06249,-2.75 z m 83.40625,0.25 c -7.94207,3.01931 5.90275,8.90111 3.66521,2.3123 -0.86999,-1.1684 -2.0802,-2.3509 -3.66521,-2.3123 z m 23.8125,2.21875 c -4.29366,1.38923 3.59661,1.30274 -10e-6,0 l 10e-6,0 z m -103.53125,0.6875 c -1.74918,3.94816 -5.18099,2.59929 0,0 z m 96.125,1.125 c -4.12196,0.98057 4.48202,10.20343 3.87499,4.71875 3.95753,3.06162 -5.37889,6.3948 0.96875,9.15625 2.6005,3.27997 1.94226,0.82382 3.46388,-0.01 0.27139,4.4887 3.64118,6.45647 5.25487,1.44746 2.44756,-3.84513 -2.37975,-2.81068 -2.07052,-7.10176 -4.97109,-2.24876 1.61921,-6.56934 1.44552,-2.49199 3.89219,-3.28188 -10.02657,-6.9462 -8,-4.0625 0.3044,2.65751 8.61978,0.007 4.3317,1.61298 -4.87816,1.73702 3.8557,5.31644 0.94994,8.30567 2.5427,3.6301 1.48359,6.46794 -1.03495,1.13193 -2.1512,-5.16834 -1.79553,3.15575 -2.93419,-1.92558 4.38576,-2.20017 -3.11097,-9.8131 -3.90625,-8.21875 0.4607,-1.41208 -1.03257,-2.65548 -2.34374,-2.5625 z m -9.4375,0.5 c -3.47212,2.32237 6.03279,6.99871 -0.89975,3.19775 -6.71,-3.99212 -2.58124,11.33175 2.64361,4.56195 3.43601,-2.74016 3.5318,-7.6053 -1.74386,-7.7597 z m -65.5625,0.21875 c 3.14113,1.00006 -3.534,2.4405 -10e-6,0 l 10e-6,0 z m 70.9375,0.5 c -0.63927,3.23384 2.53264,10.4451 4.86161,5.97447 -1.26856,-2.25345 -3.18348,-4.03536 -4.86161,-5.97447 z m -85.4375,3.5 c 1.6335,3.37051 6.18008,-2.377 3.1734,2.74017 -1.96231,5.5759 11.32874,3.3183 6.80379,0.0876 4.09921,1.14373 4.84038,4.84712 0.0853,4.01602 -5.52143,5.28898 -9.17226,-4.67483 -11.44416,-6.19299 l 0.32227,-0.33793 1.05938,-0.31283 1e-5,0 z m 52.75,2.15625 c 7.16363,2.26414 -2.3391,5.34649 -1.80751,0.50822 l 1.3075,-0.47697 0.5,-0.0312 10e-6,0 z m -5.8125,0.84375 c 3.78033,2.3222 -2.13672,2.81297 0,0 z m 16.1875,0.0312 c 3.32627,2.69003 -6.71665,5.59106 -5.91568,1.10991 2.51962,1.6164 3.74057,-0.80351 5.91568,-1.10991 z m 25.3125,2.96875 c 4.06486,3.11311 -2.64241,1.72939 0,0 z m -92.375,2.03125 c 1.62792,2.46624 4.14103,1.06336 5.2098,0.44463 -5.23093,5.34449 6.20114,6.47029 5.91712,2.60269 -3.8981,-2.78257 5.03046,1.06116 4.88895,-0.35505 -2.48861,4.16937 -12.8798,7.78948 -14.54713,1.12023 -0.47671,-0.81857 -3.2002,-3.01565 -1.46874,-3.8125 z m 21.875,0.96875 c 4.22397,-0.70934 6.06243,2.47082 0.59374,2 -4.65375,0.13506 -6.90797,-2.1173 -0.59374,-2 z m 34.5,0.21875 c 2.74875,-0.85591 9.79656,3.01009 3.16971,2.13374 -0.46766,0.11523 -6.28581,-1.83757 -3.16971,-2.13374 z m -67.625,0.15625 c 0.66246,4.06089 -3.48185,2.4207 0,0 z m 92.90625,0.0312 c 1.61717,1.45397 1.81584,5.00732 5.28125,5.46875 -3.0652,-0.55701 -10.43244,0.27009 -8.79351,-3.92736 1.24841,-0.56131 2.53854,0.0285 3.51226,-1.54139 z m -12.3125,1.65625 c 2.93782,0.69231 -3.62235,5.50895 -4.21876,3.625 -0.8086,-2.36535 2.5083,-3.40539 4.21876,-3.625 z m -45.90625,0.9375 c 3.14113,1.00006 -3.534,2.4405 -10e-6,0 l 10e-6,0 z m 87.28125,0.0937 c 0.3323,3.69315 5.06393,8.70243 2.27358,11.61945 0.23692,-3.23046 -4.06739,-6.03062 -3.55484,-6.68195 2.42042,-0.90525 0.20819,-3.38131 1.28126,-4.9375 z m -112.21875,0.0312 c 4.62483,0.51752 -3.17157,1.27761 0,0 z m 56.25,0.65625 c 4.50325,1.51881 -4.8018,1.31753 0.78187,2.87482 2.74431,0.1404 12.04472,3.10903 4.58764,3.19522 -2.51747,-1.73947 -12.87795,-0.71635 -10.56639,-4.67366 1.65933,-0.68534 3.4172,-1.15959 5.19688,-1.39638 z m 60.1875,0.21875 c -3.78377,3.94 3.70657,3.91986 0,0 z m -45.6875,1.28125 c 2.4182,0.7839 13.57349,0.63017 6.05787,2.49936 -1.15995,0.85022 -8.70869,-0.62012 -6.05787,-2.49936 z m -77.3125,1.0625 c 3.75798,2.98751 -3.7255,3.2393 0,0 z m 4.65625,1.4375 c 4.9453,0.6578 5.92652,7.84634 12.04852,3.87061 3.45091,2.54889 -8.09858,4.11861 -9.11103,-0.24561 -0.26618,-1.41969 -5.88529,-2.4225 -2.93749,-3.625 z m -8.5,0.0625 c 5.41352,0.53978 5.00547,9.04227 0.7705,8.61622 4.98845,-3.93358 -1.44199,-4.83295 -0.7705,-8.61622 z m 20.125,0.15625 c 5.52488,1.32207 6.64849,7.40589 13.27885,4.39247 6.73313,0.29176 -3.97961,2.28962 0.60904,4.53207 -4.71823,-1.93252 -10.94599,-4.50108 -13.8879,-8.92454 l 10e-6,0 z m 69.53125,0.40625 c 5.08902,1.73977 -4.20353,3.62153 0,0 z m 6,1 c 5.08902,1.73977 -4.20353,3.62153 0,0 z m -12.53125,0.625 c 2.41802,0.60412 -5.31127,4.96343 -4.17131,3.73126 -3.11164,-1.86196 2.52386,-3.15552 4.17131,-3.73126 z m 9.21875,1.1875 c 2.99285,-0.0465 10.72942,5.77219 3.57342,2.73452 -3.41451,-1.75102 -6.92024,4.95319 -4.52262,-1.97581 l 0.39289,-0.54386 0.5563,-0.21485 10e-6,0 z m -24.875,0.125 c 6.49858,-0.31863 -0.19781,3.23312 -10e-6,0 l 10e-6,0 z m 60.8125,0.15625 c 3.64252,2.38842 -2.07368,7.16997 -1.19225,1.02412 0.15611,-0.53422 0.64643,-0.95031 1.19225,-1.02412 z m -65.3125,0.5625 c 5.6067,2.18061 -4.8916,2.58126 -10e-6,0 l 10e-6,0 z m 19.4375,1.25 c 3.40994,-0.0162 9.80845,3.72271 2.39991,2.82597 -0.9801,0.16621 -5.20764,-2.54672 -2.39991,-2.82597 z m -15.3125,1.125 c 2.70378,0.002 12.66991,1.99652 4.82535,2.63097 -4.80161,0.39141 1.53531,3.76853 -3.78279,2.68604 -3.19928,0.3777 -7.85841,1.26838 -2.41786,-0.61615 4.42235,-1.33981 5.27851,-3.31126 0.62529,-4.13836 l 0.19533,-0.37705 0.55467,-0.18545 10e-6,0 z m -59.375,1.90625 c 2.73565,2.52078 -4.11282,1.44203 0,0 z m 16.875,0.8125 c 0.98294,2.23024 6.05786,6.66926 -0.0313,3.625 -2.27049,-0.80711 -2.70184,-3.10086 0.0313,-3.625 z m -13.15625,0.34375 c 1.295,2.2281 6.18977,6.30727 0.15624,3.28125 -2.0544,-0.74203 -3.40741,-2.81103 -0.15624,-3.28125 z m 77.90625,0.5625 c 3.24858,2.82425 6.3786,2.31961 8.24276,0.46586 -0.3718,5.12333 -7.5721,6.68147 -7.49277,0.47164 l -0.75,-0.9375 10e-6,0 z m -89.40625,0.25 c 2.8984,0.59637 8.37614,6.40959 2.17575,3.48891 -0.62381,-0.57501 -3.83716,-2.64496 -2.17575,-3.48891 z m 83.4375,0.0625 c 2.69203,1.08774 -4.84974,4.35231 1.42048,4.35674 5.37736,4.59739 -8.94861,-1.31257 -5.86893,-2.76093 1.37082,-0.77923 2.84052,-1.50946 4.44845,-1.59581 z m -63.59375,1.15625 c 4.82297,2.03869 -9.08191,4.89356 0,0 z m 14.34375,0.0625 c 2.72078,3.0764 -9.87225,3.70366 -2.21566,0.38857 l 0.79386,-0.23622 1.42179,-0.15235 10e-6,0 z m 82.8125,0.6875 c 2.3712,6.44504 -3.92584,2.60895 0,0 z m 14.5625,0.375 c -2.77465,2.85987 -0.62674,10.14173 1.58015,8.16212 -2.58839,-2.39098 -0.085,-5.81586 -1.58015,-8.16212 z m -64.75,1.40625 c 2.31743,0.14838 13.00257,1.94669 5.65924,2.85498 -1.71272,-0.0947 -5.51826,-1.35222 -5.65924,-2.85498 z m -10.40625,0.9375 c 5.9908,1.68116 -4.15563,4.89066 -1.22874,0.18793 l 1.22873,-0.18793 10e-6,0 z m 32.375,0.34375 c 2.73565,2.52078 -4.11282,1.44203 0,0 z m -49.65625,1.25 c 3.54136,4.52927 -6.40308,0.49559 0,0 z m -37.90625,0.40625 c 0.002,3.552 2.92483,5.68749 5.93749,6.75 -0.0216,1.11858 -7.89708,-1.3099 -9.54103,-4.63927 4.68135,1.71835 2.27815,0.0473 3.60354,-2.11073 z m 23.5625,0.34375 c 1.44136,1.38409 7.81219,5.42724 1.88517,3.79671 -1.44711,-0.56121 -5.15324,-2.48061 -1.88517,-3.79671 z m -17.9375,0.0312 c 3.10346,-0.21203 14.16116,7.37869 6.1275,4.41419 -1.83105,-1.25017 -5.49694,-2.76027 -6.1275,-4.41419 z m 108.1875,0.625 c -6.51295,-1.48938 0.0774,12.50649 1.43749,5 1.91481,0.89976 -2.70509,7.21674 2.49897,4.90974 3.43017,-4.3211 -2.9377,-7.07643 -2.87751,-9.82744 l -1.05896,-0.0823 10e-6,0 z m -26.96875,0.125 c 3.31469,1.56811 5.23005,5.43065 8.95145,2.24075 -0.17495,4.34923 -7.69077,4.81686 -7.85771,-0.11575 -0.045,-0.3829 -1.98235,-1.66457 -1.09374,-2.125 z m -4.84375,0.0312 c -2.04579,3.26753 3.96649,9.03491 -2.49409,5.46161 -0.87467,-2.0314 1.12117,-4.23217 2.49409,-5.46161 z m -15.3125,0.21875 c 8.47766,0.0662 -4.19434,3.11441 0,0 z m -33.3125,0.625 c 1.18579,4.29633 -8.53364,2.59464 -1.42928,0.20257 l 1.42927,-0.20257 10e-6,0 z m -13.875,0.53125 c 2.27116,3.39763 -7.01887,4.05075 -1.31251,0.46875 l 1.3125,-0.46875 10e-6,0 z m 55.8125,0.125 c 8.79705,0.7221 -2.09483,4.68328 0,0 z m -10.40625,1.84375 c 3.42087,1.06257 11.26623,3.41177 3.25541,3.26157 -0.97613,0.31807 -5.35489,-2.74354 -3.25541,-3.26157 z m 21.65625,2.84375 c 2.73565,2.52078 -4.11282,1.44203 0,0 z m -89.0625,0.0312 c 0.66246,4.06089 -3.48185,2.4207 0,0 z m 26.65625,0.375 c 2.89925,0.88091 9.74572,5.27411 2.44315,3.25493 -0.9888,-0.49245 -6.70907,-2.35473 -2.44315,-3.25493 z m 40.8125,0.3125 c 9.9121,2.24154 -3.85152,2.20027 0,0 z m 5.71875,0.53125 c 2.61596,2.49397 6.81989,2.74786 9.15624,2.78125 -2.04427,3.83596 -7.54773,-0.19239 -9.15624,-2.78125 z m -12.5,0.40625 c 3.8931,2.48808 -3.89317,2.48793 0,0 z m -23.28125,0.0312 c 3.80109,3.06244 -7.45162,3.9386 -2.15626,0.59375 l 1.2534,-0.4303 0.90285,-0.16345 10e-6,0 z m -22.375,0.0312 c -1.40625,1.97411 7.54378,5.44498 1.18787,4.18439 -3.34861,-0.64891 -7.3974,-2.9604 -1.18787,-4.18439 z m 73.3125,0.9375 c 2.76797,2.21648 5.36229,5.36201 7.92113,3.51739 -3.12295,7.71761 -6.90236,-0.27661 -7.92113,-3.51739 z m -91.28126,0.34375 c 2.7357,2.52075 -4.11279,1.44207 0,0 z m 26.34376,0 c 0.57404,5.18254 -5.4272,2.83007 0,0 z m 41.96875,1.875 c 4.71606,-0.22787 5.08085,6.07388 0.46178,2.0782 -0.27364,-0.0799 -1.72025,-1.9934 -0.46178,-2.0782 z m 61.28125,0.875 c 1.21608,6.85828 -3.99741,12.34495 -3.14534,18.98796 1.14643,2.42036 0.92587,-4.59532 2.60556,-0.0251 -5.1564,5.18604 -2.61416,-6.10364 -4.42898,-6.55664 -0.42437,0.40806 -1.03241,-5.77315 -3.57043,-1.61209 -0.0585,3.32391 -2.21539,8.61379 -1.87075,2.03869 -1.75519,-2.64613 -0.89916,-9.07755 -4.33545,-4.4363 -5.81828,0.96586 1.61894,11.46486 -6.47391,11.04584 0.78269,2.92693 -1.48508,7.56761 -1.14136,1.90162 -0.9945,-4.48022 -5.23022,-7.60964 -9.10183,-4.53305 1.53196,2.50406 2.16176,10.39326 3.24373,5.43904 5.61134,-3.38188 -3.73839,5.82852 3.35429,4.19384 3.34145,0.30801 10.14402,-5.33654 5.76788,1.12629 1.66236,4.39288 5.94334,-3.66789 3.69009,-6.69424 -2.07682,-3.33209 4.96257,-9.53781 0.76327,-3.96101 -1.13749,3.35004 6.78158,-0.12106 5.51822,2.58512 3.98689,0.84042 8.04323,1.58931 5.53768,7.94161 4.1286,4.18824 1.45739,-5.12711 4.29312,-6.9581 -0.98222,-5.0126 -0.98932,-9.73507 0.56453,-14.49115 1.98541,1.12015 -1.26305,8.97428 1.22967,5.88264 2.40416,-1.31171 4.68174,-8.5938 4.66155,-10.40808 -3.63254,0.53588 -3.89317,9.87223 -4.17796,2.50133 -0.32361,-1.66789 -1.19126,-3.496 -2.98358,-3.96825 z m -123.5,0.125 c 4.75186,-0.3171 5.64553,4.51517 0.62499,1.6875 -1.18029,-0.10345 -3.03419,-2.02727 -0.62499,-1.6875 z m 68.53125,0.78125 c 3.8931,2.48808 -3.89317,2.48793 0,0 z m -47.34375,1.125 c 4.12833,-0.52529 7.16462,1.90046 11.04805,2.27438 -3.17587,2.90586 -7.97958,-0.31118 -11.04805,-2.27438 z m 62.34375,0.875 c 3.14113,1.00006 -3.534,2.4405 -10e-6,0 l 10e-6,0 z m -27.625,0.0312 c 4.27189,3.16834 -4.41991,2.92074 0,0 z m -19.6875,0.0312 c 3.40027,1.65323 -6.62458,3.69155 -0.89939,0.20881 l 0.89938,-0.20881 10e-6,0 z m 25.8125,0.59375 c 7.77131,0.6562 -2.57924,3.17196 -3.02202,0.49214 0.97236,-0.31427 1.99102,-0.55666 3.02202,-0.49214 z m -67.87501,0.59375 c -2.32743,5.2526 2.09879,7.73536 5.1871,9.13864 -6.52272,-2.19124 -4.72036,4.72203 -3.21602,7.29609 -5.00084,0.22386 -3.49635,-11.03092 -3.16275,-15.10726 0.15688,-0.55133 0.48915,-1.32579 1.19167,-1.32747 z m 19.78126,0.28125 c -0.13991,1.85246 8.4954,4.71838 2.08441,3.81019 -3.03654,-0.73773 -8.00777,-1.42688 -2.08441,-3.81019 z m 7.96875,0.65625 c 1.86411,2.2646 -1.69521,4.08333 0,0 z m 47.90625,0.125 c 2.45283,1.4579 6.02764,1.23749 6.03124,1.375 7.92308,-3.31525 -7.28568,8.20581 -6.03124,-1.375 z m 12.96875,0.75 c 2.10604,3.2969 6.09126,5.15111 8.41076,3.29987 -2.5604,3.88414 -8.13149,4.58755 -7.69202,-1.58112 l -0.59885,-1.27403 -0.1199,-0.44472 10e-6,0 z m -80.0625,1.25 c 1.47815,1.9489 7.5215,4.72167 1.4542,4.17064 -2.63153,-1.03043 -8.84968,-4.63335 -2.18151,-2.8426 0.68696,-0.12314 0.45312,-0.89649 0.72731,-1.32804 z m -6.1875,1.6875 c 3.14113,1.00006 -3.534,2.4405 -1e-5,0 l 1e-5,0 z m 33,0.46875 c 3.51547,0.21206 9.27465,1.91806 2.30504,2.5011 -2.53092,0.51767 -9.92456,-1.82238 -2.30504,-2.5011 z m 34.8125,1.53125 c 4.16365,0.74015 9.41449,7.7299 3.18749,5.59375 0.18368,-2.29485 -3.80942,-3.82344 -3.18749,-5.59375 z m 15.1875,1 c 3.14113,1.00006 -3.534,2.4405 -10e-6,0 l 10e-6,0 z m -4.28125,0.5 c 0.8583,3.2348 -5.2924,5.64848 -1.21876,0.875 l 1.21875,-0.875 10e-6,0 z m -58.3125,0.0625 c 0.30822,2.02983 9.86971,2.15227 2.39756,3.40706 -2.88928,0.2919 -8.18445,-1.21561 -2.39756,-3.40706 z m 39.09375,1.4375 c 4.42528,-0.49865 3.66027,5.58859 0.37499,1.375 -0.1632,0.60721 -1.36057,-1.67449 -0.37499,-1.375 z m 69.5,0 c -3.4615,2.82565 2.51732,6.29663 0.70623,0.5875 l -0.31796,-0.42969 -0.38828,-0.15781 10e-6,0 z m -119.3125,0.1875 c -2.49882,4.7404 9.59633,3.88606 2.91083,5.62136 -6.82927,0.342 -4.10981,-1.38988 -2.91083,-5.62136 z m 73.28125,0.8125 c 1.21366,3.75414 6.01651,3.97948 8.06252,3.56506 -2.74057,3.41512 -8.57104,4.6181 -7.62572,-1.37298 -0.19797,-0.6775 -2.17207,-2.24729 -0.4368,-2.19208 z m -46.15625,0.46875 c 8.03877,1.12383 -3.42078,4.78467 -4.0893,1.07697 1.19051,-0.82019 2.68372,-1.00073 4.0893,-1.07697 z m 29.28125,0.53125 c 1.76552,2.76253 -4.66947,1.79031 -10e-6,0 l 10e-6,0 z m 53.8125,0.125 c 3.46546,2.42621 -4.60873,3.00805 -10e-6,0 l 10e-6,0 z m -117.53125,0.875 c 3.42628,3.5295 -1.75396,4.29512 0,0 z m 15.21875,0 c 2.06367,3.7052 -3.5044,4.13233 0,0 z m 42.4375,0.59375 c 4.81305,1.52821 -5.54396,3.31079 -10e-6,0 l 10e-6,0 z m 5.84375,1.40625 c 0.71549,4.41757 7.50289,2.42408 8.15624,3.875 -2.96216,0.56273 -8.53193,5.32044 -7.88619,-1.31946 -0.10475,-0.70464 -1.47205,-2.26923 -0.27005,-2.55554 z m 12.75,1.0625 c 3.08773,2.66993 -0.71745,7.54955 -0.96876,1.3125 l 0.48868,-0.93279 0.48007,-0.37971 10e-6,0 z m 51.0625,0.25 c -4.87166,5.21893 0.0328,4.4677 0,0 z m -14.34375,0.0937 c -3.38681,2.23886 -4.76067,14.77335 2.45359,9.85892 2.51101,0.35503 3.89306,-5.74256 2.34948,-0.0528 -3.18237,1.66718 -3.2278,13.30795 -0.52183,5.85015 2.01017,-3.46564 5.52569,-10.48028 1.2804,-12.82578 -1.57703,1.90985 -4.62082,9.00291 -2.75693,2.6023 0.58785,-2.10547 -0.21989,-5.28457 -2.80471,-5.43277 z m -111.59375,0.65625 c 10.79003,2.11898 -8.27216,1.40598 0,0 z m 25.25,0.0625 c 5.01466,0.80096 -5.01474,0.80093 0,0 z m -5.75,0.90625 c 9.33223,1.65741 -7.30165,1.52771 0,0 z m -9.0625,0.1875 c 0.67326,3.64474 2.89647,3.8728 6.32628,4.38571 -2.26146,2.49767 -10.54763,1.88269 -6.51379,-3.04196 l 0.1875,-1.34375 10e-6,0 z m 47.1875,0.6875 c 2.12973,1.20975 -4.80411,4.63483 -1.00425,0.59804 l 1.00424,-0.59804 10e-6,0 z m -22.375,0.21875 c 5.01466,0.80096 -5.01474,0.80093 0,0 z m 22.28125,3.15625 c 0.43136,3.21889 8.68973,5.28145 1.37335,5.79889 -1.72258,-0.66639 -1.01066,-4.15209 -1.37335,-5.79889 z m 54.15625,0.0312 c 1.57404,3.1427 -4.59419,5.22816 -0.61521,0.4247 l 0.6152,-0.4247 10e-6,0 z m -108.0625,0.0312 c 3.64007,3.49076 -1.03298,3.18158 0,0 z m 23.28125,0 c 0.54693,3.35626 11.54139,1.23536 3.87499,2.8125 -2.73308,0.0787 -4.81551,4.40325 -6.31868,-0.23009 0.50159,-1.07259 1.45594,-1.95751 2.44369,-2.58241 z m 42.40625,1.78125 c 4.62483,0.51751 -3.17157,1.27762 0,0 z m -70.1875,0.875 c 2.10627,1.5271 4.53879,2.91038 0.0937,1.5 -0.7639,0.10523 -1.00597,-1.75353 -0.0937,-1.5 z m 65.5625,0 c 6.08507,1.76793 -4.70683,1.89987 0,0 z m -54.0625,0.1875 c 1.86411,2.2646 -1.6952,4.08333 0,0 z m 6.78125,0.8125 c 0.0957,4.14102 10.9212,2.64657 3.17051,5.38322 -3.48685,1.5668 -5.01707,-3.43585 -3.17051,-5.38322 z m -11.375,0.0625 c 8.46974,1.84538 -7.04602,1.28705 -10e-6,0 l 10e-6,0 z m 63.1875,0.46875 c -0.0417,4.40392 4.53861,4.63412 6.78124,5.03125 -2.2849,0.94739 -12.67952,4.00218 -7.08203,-0.74658 0.73808,-1.26501 -0.72742,-3.28032 0.30079,-4.28467 z m -37.03125,1.46875 c 4.06486,3.11311 -2.64241,1.72939 0,0 z m -18.5,1 c 3.78033,2.3222 -2.13672,2.81297 0,0 z m 24.46875,0.28125 c 4.08497,3.36962 -13.58594,3.64551 -4.01079,1.16204 1.36623,-0.28737 2.67487,-0.77135 4.01079,-1.16204 z m -28.34375,0.71875 c 5.55732,2.33382 -1.4737,5.40353 0,0 z m 54.6875,1.125 c -0.34669,0.98444 -2.7993,9.0386 -2.62501,2.15625 -0.11706,-1.45533 1.38837,-2.16259 2.62501,-2.15625 z m 53.28125,0.28125 c -3.11133,2.82897 1.04831,2.41724 0,0 z m -94.21875,0.96875 c 5.44452,2.45075 0.75137,5.8193 0,0 z m -19.3125,0.625 c 4.07032,2.13301 3.36143,5.40642 0,0 z m 9.09375,1.125 c 6.38826,0.62173 -5.38236,0.9778 0,0 z m 57.09375,0.0625 c 3.47236,2.26218 -1.08387,9.42957 5.39905,8.34459 -2.13637,1.29949 -8.88041,3.42049 -7.46156,0.49916 2.73851,-1.47864 3.19172,-6.17011 2.06251,-8.84375 z m -37.75,0.28125 c 1.74145,3.9198 -1.61666,4.12845 0,0 z m 48.84375,1.28125 c 6.20634,0.2642 -3.26688,2.58152 -1.60769,6.46931 -5.54476,6.05653 2.65639,-3.54227 -3.126,-5.37983 0.20287,-1.3912 3.74942,-0.68583 4.73369,-1.08948 z m -78.34375,0.25 c 4.06486,3.11311 -2.64241,1.72939 0,0 z m 26.6875,0 c 3.62924,2.75718 -10.30468,2.93647 -1.6074,0.18253 l 0.80655,-0.13442 0.80084,-0.0481 10e-6,0 z m -12,1.03125 c 2.95108,0.49806 4.40939,4.83722 0.81249,1.5 0.43862,0.58492 -1.92276,-1.47705 -0.81249,-1.5 z m 47.3125,0.5 c 6.80534,1.9696 -4.66151,2.59725 -5.04367,0.76415 1.67069,-0.31338 3.32954,-0.7772 5.04367,-0.76415 z m -32.25,1.5 c 4.82154,1.7462 -0.54057,2.28715 -10e-6,0 l 10e-6,0 z m 74.25,0.9375 c -3.29304,1.57992 -0.78325,6.67106 1.40175,1.66736 3.50026,0.68298 0.13652,-1.7641 -1.40175,-1.66736 z m -98.59375,0.53125 c 0.5851,3.67844 -7.85765,3.39536 -2.21876,0.75 l 1.40128,-0.51185 0.81747,-0.23815 10e-6,0 z m 7.9375,0.125 c 2.77208,1.82957 11.98449,-0.39985 4.50685,1.97726 -1.07665,-0.36403 -10.55454,-0.73977 -4.50685,-1.97726 z m 10.84375,0.875 c 5.5175,1.88742 -0.0899,6.96536 0,0 z m -18.125,0.5 c 2.10951,1.46706 8.28253,2.66353 2.13008,2.40474 -0.93391,-0.56296 -1.59297,-1.48045 -2.13008,-2.40474 z m 77.8125,1.71875 c 0.20542,3.43746 -6.69613,5.80401 -1.81251,1.28125 l 1.10136,-0.96061 0.71114,-0.32064 10e-6,0 z m -65.125,0.28125 c 0.92626,2.50039 9.6818,1.67557 3.68121,3.90543 -1.0374,-0.11875 -4.9448,-3.0062 -3.68121,-3.90543 z m -4.5625,0.46875 c 1.73991,2.58908 -5.29761,1.00735 0,0 z m 64.5,0.78125 c -1.32391,2.26854 -7.28504,6.3104 -10.09444,6.36966 5.04334,-0.83631 1.16947,-7.72635 7.54463,-5.49628 0.92523,-0.034 1.7312,-0.50878 2.54981,-0.87338 z m -11.875,0.78125 c 1.08274,4.05308 -7.59966,3.52222 -1.20248,1.60156 l 0.76497,-0.88281 0.4375,-0.71875 10e-6,0 z m -37.0625,0.0312 c 5.72508,1.53551 -8.88919,2.50619 0,0 z m 55.8125,0.8125 c -4.09211,2.86681 -7.57944,6.72387 -11.97692,9.0133 -2.33635,-1.9194 5.4885,-5.52915 5.13316,-6.5133 2.60427,0.392 4.77716,-1.19075 6.84376,-2.5 z m -65.5,2.3125 c 3.27523,-0.52516 8.16956,2.81391 1.96854,1.16017 -0.98899,-0.16904 -5.77149,-1.34275 -1.96854,-1.16017 z m 41.78125,0.90625 c 7.53898,1.32081 -3.17612,3.44194 -3.13623,3.94901 0.7691,-1.33246 1.21013,-3.82996 3.13623,-3.94901 z m -33.0625,0.4375 c 0.60674,3.58792 -6.87358,2.49452 -0.83852,0.2197 l 0.83851,-0.2197 10e-6,0 z m 60.1875,0.0625 c -2.41068,1.95348 -9.38655,3.74373 -8.97809,5.95742 3.8311,-0.82752 4.24123,-0.72601 5.88433,-2.55117 1.32779,0.26554 5.35286,-2.39491 3.09376,-3.40625 z m -23.125,2.53125 c 9.34191,1.31975 -6.38356,5.22396 0,0 z m -29.8125,0.53125 c -6.39862,2.36498 0.67969,5.29059 4.11461,4.1172 4.21492,4.50482 -1.51794,-6.48395 -4.11461,-4.1172 z m 1.09375,1.46875 c 4.62483,0.51751 -3.17157,1.27762 0,0 z m 9,7 c -3.17157,1.27763 4.62483,0.51749 0,0 z"
           id="path4889"
           inkscape:connector-curvature="0" />
        <path
           style="opacity:0.5070419;fill:#f0edec;fill-opacity:1"
           d="m 320.20108,330.52307 c -2.11633,2.87008 3.74849,1.72787 0,0 z m -3.4375,1 c -3.93044,2.96524 3.26094,2.72468 0,0 z m 16.4375,1.5 c -4.99721,1.7426 4.28832,1.7791 0,0 l 0,0 z m -4.90625,0.5 c -5.62077,1.01632 3.98429,2.30212 0.24718,0.0548 l -0.24718,-0.0548 z m -35.34375,0.0937 c -3.7944,0.53857 0.23027,2.54428 0,0 z m 28.59375,1 c -4.88682,1.48642 7.43496,1.3526 0.10397,0.003 l -0.10397,-0.003 z m -25.6875,0.90625 c -7.69157,4.57193 6.38553,1.60947 0,0 z m -9.375,0.15625 c -4.69742,4.11052 0.73684,5.95432 3.6702,2.13309 -1.2493,-1.74977 -5.72825,1.38657 -3.6702,-2.13309 z m 49.53125,0 c 1.52101,1.90944 -5.39325,2.49068 -0.10966,3.78258 2.36884,-0.3368 2.44065,-3.13846 0.10966,-3.78258 z m -57.9375,0.21875 c -3.77053,2.16969 1.03498,4.07995 0,0 z m 36.21875,0.28125 c -3.92333,4.03502 2.30959,1.98558 3.60486,1.58806 -1.14433,-0.651 -2.41356,-1.03679 -3.60486,-1.58806 z m 14.71875,0.375 c -2.86355,1.82863 5.02967,1.29907 0,0 z m -46.625,0.21875 c -4.96508,2.18588 -1.23662,5.08665 0,0 z m 60.5,0.21875 c -4.35151,0.33169 0.5289,2.68829 0,0 z m 4.9375,0.65625 c -2.86576,1.54687 4.30474,0.12459 0,0 z m -24.96875,0.6875 c -7.96072,1.3856 4.04241,5.26045 0,0 z m 4.6875,0.78125 c 3.78683,2.85048 -0.77678,1.1476 0.0335,2.08795 4.4372,0.54311 3.40246,-2.07135 -0.0335,-2.08795 z m -12.5,0.375 c 1.86863,1.96743 1.58796,-0.64168 0,0 z m -25.5625,0.4375 c -6.03218,5.64909 9.6647,1.15463 3.05824,0.62326 -0.53047,-1.15795 -2.14515,-0.23512 -3.05824,-0.62326 z m -17.09375,0.0625 c 2.32927,1.93516 -3.59966,3.6248 0.6177,3.07277 3.12918,-3.18887 3.33834,1.61726 4.75652,2.32902 -3.56397,2.59551 1.66112,0.74709 2.56451,-0.23103 1.41455,3.65423 4.01195,0.17483 4.47376,3.90798 4.40052,-2.79092 8.02432,11.12864 7.97386,2.12573 -2.00226,-3.82891 -5.75239,-3.66659 -9.0191,-6.39863 -2.89578,-1.00878 -6.84548,-0.43955 -5.84238,-3.29142 -1.76915,-0.75512 -3.79978,-0.6379 -5.52487,-1.51442 z m 11.375,0.53125 c -0.65875,1.54858 0.64175,0.51525 0,0 z m 64.75,0.0312 c -2.78115,1.31245 4.96429,8.82799 3.72265,2.71106 -1.02411,-1.15837 -2.33594,-2.04505 -3.72265,-2.71106 z m -4.125,0.0937 c -5.7056,0.56465 -0.41647,5.34946 1.5017,5.20005 0.60267,-1.38261 0.63566,-5.13465 -1.5017,-5.20005 z m -31.375,0.3125 c -0.90737,1.5739 4.33933,2.95117 0.28124,4.53126 5.03889,-0.27829 2.76355,-4.35404 2.33313,-3.95335 -0.43535,-0.87996 -1.84354,-0.36184 -2.61437,-0.57791 z m 24.90625,0.5625 c -3.29054,-1.22113 -7.99777,7.58068 -2.60293,3.15664 6.1687,0.41667 -3.06011,2.63422 0.56753,2.55025 5.81306,1.71038 -1.95566,-7.44845 1.61992,-3.27492 1.79623,0.35477 2.60892,-2.3371 0.41548,-2.43197 z m 5.53125,0.0312 c 4.15885,0.68018 0.0632,2.83455 0,0 z m -63.75,0.625 c -1.6202,0.16378 0.58364,0.61529 0,0 z m 42.3125,0.15625 c -2.67312,3.5464 -6.40193,5.30308 -10.74264,6.43569 4.54183,2.80089 6.42672,-2.42961 9.75368,-3.26601 2.76558,1.65027 -4.03467,3.23792 1.24468,2.28904 -0.0525,5.18134 8.24647,-0.25768 1.31051,-1.1517 -6.84274,-2.66417 4.1309,-2.24177 -1.56623,-4.30702 z m -28.09375,0.4375 c -1.43269,0.54517 -0.81031,2.67267 -3.71209,3.0532 0.90435,-0.29899 5.18214,-1.67975 3.71209,-3.0532 z m -23.15625,0.71875 c -0.5372,2.7725 2.43528,-0.15831 0,0 z m 58.5,0.0625 c -3.63571,1.17276 -2.67096,0.71125 -0.98915,3.29314 -0.88743,6.3829 2.97871,-2.83653 0.98915,-3.29314 z m 27.1875,0 c 0.0632,2.83457 4.15882,0.68016 0,0 z m -14.5,1 c 1.55591,2.78693 3.3866,0.58586 0,0 z m -74.875,0.125 c -3.90163,-2.00897 -7.95742,3.89231 -2.21807,2.34232 0.0925,-1.11614 5.54686,-2.22712 2.21807,-2.34232 z m 87.875,0.84375 c 5.6559,6.06414 -7.44337,-1.99863 -2.9219,3.43789 1.63343,-2.10899 3.55765,1.83576 6.40185,-0.0221 1.00033,3.90599 3.54157,-2.00849 5.55312,0.94523 -1.4295,-2.83455 -6.16561,-3.45145 -9.03307,-4.36106 z m -60.8125,0.46875 c -1.46562,4.00533 1.73984,2.86569 0,0 z m -22.125,0.78125 c -1.72156,1.06225 -8.2923,0.29948 -3.72348,2.8579 0.65536,0.0497 6.32068,-2.79306 3.72348,-2.8579 z m 73,1.25 c -2.47488,1.88343 -4.1941,0.38954 -0.34611,3.10286 1.92833,0.96754 1.14035,-2.62152 0.34611,-3.10286 z m 2.21875,0.0937 c -1.9127,2.13255 3.03188,1.87887 0,0 z m 2.21875,0.71875 c -3.20392,0.9034 3.80864,0.70979 0,0 z m 3.96875,0.0312 c -2.89082,3.1227 3.07191,2.45004 0,0 z m -89.34375,0.0937 c -3.00858,3.9973 3.5292,0.76657 0,0 l 0,0 z m 10.03125,0.15625 c -2.70852,-1.1091 -9.03395,5.4604 -2.79118,3.05317 2.93947,-1.30575 2.06187,-1.46047 4.33187,0.25603 4.45115,-0.91751 2.40532,-4.0605 -0.82326,-2.11064 -0.32067,-0.34255 0.0707,-1.33405 -0.71743,-1.19856 z m 56.6875,0.21875 c -2.28088,4.63054 10.35178,1.08224 2.18301,1.13919 -0.73077,0.0288 -2.42349,0.0692 -2.18301,-1.13919 z m -73.84375,0.1875 c -4.63446,2.63415 1.86593,8.01123 3.81249,3.25001 -5.44562,3.1149 3.86645,2.89538 -0.0516,-0.53014 -1.58856,-0.31313 -4.13274,-0.31795 -3.76094,-2.71987 z m 26.125,0.15625 c -3.45545,-0.85736 -1.53406,2.3466 0,0 z m 57.28125,0.0937 c -6.7596,2.44345 5.97316,6.45487 3.65477,3.73745 -3.0676,2.25692 -5.93676,-5.40284 -2.04445,-3.26257 -0.48453,-0.34051 -1.03919,-0.40692 -1.61032,-0.47488 z m 11.15625,0.875 c -1.60813,2.04853 -5.04201,0.27925 -0.91896,3.11072 1.06221,-0.0631 1.9524,-2.50267 0.91896,-3.11072 z m -66.53125,0.90625 c 0.8379,1.4361 -2.98031,2.91994 1.43075,3.90051 5.24582,1.59433 -0.56752,-3.34574 -1.43075,-3.90051 z m 75.1875,0.15625 c -0.31929,0.40055 2.26823,0.55561 0,0 z m -41.46875,0.0625 c -1.48806,2.53109 -12.73514,-1.49679 -6.33745,2.47172 6.0991,1.90857 13.04436,-1.00811 17.56441,1.67148 3.64494,0.36843 8.26096,6.3501 11.46444,2.89688 -6.35979,-2.45009 -11.45188,-7.11195 -18.10035,-5.26267 -2.63273,1.31076 -2.77248,-1.86763 -4.59105,-1.77741 z m 45.46875,0.21875 c -4.65484,1.28274 4.10521,1.66193 0,0 z m -84.78125,0.0625 c -3.67252,1.61398 -5.4464,4.9502 -0.46464,3.37381 3.51792,0.002 7.52977,0.13506 1.61393,-1.73493 -2.61177,-0.003 0.19024,-1.9141 -1.14929,-1.63888 z m 79.5,0.28125 c -0.87257,1.0481 0.92512,1.32349 0,0 z m -95.34375,0.1875 c -5.48495,5.85452 7.47109,2.31884 0,0 z m 93.21875,1.28125 c 2.5466,4.59488 -3.99515,-1.01301 -0.007,3.72015 0.7911,2.01235 4.797,2.50597 3.33199,-0.58557 4.01189,2.83087 -0.43666,-3.18495 -1.21455,0.49122 1.05379,-1.60875 -0.38059,-3.54292 -2.11026,-3.6258 z m 4.5,0.0312 c 2.52473,2.92846 1.69921,2.58235 5.92685,2.91515 -5.12068,2.14186 0.34349,0.96917 2.46924,1.71268 2.32268,1.55182 -1.01589,-4.11646 -4.02385,-3.26822 -1.46035,-0.42669 -3.03301,-0.59019 -4.37224,-1.35961 z m -107.40625,0.3125 -0.0937,0.3125 0.0937,-0.3125 z m 92.875,0.375 c -1.44758,5.00195 7.81153,6.77174 3.92424,1.95754 -1.55833,0.11471 -3.97278,0.38171 -3.92424,-1.95754 z m 5.96875,0.5 c -1.71864,3.95076 5.82988,10.82859 1.70417,4.00924 -0.23446,-1.45183 -0.23561,-3.16796 -1.70417,-4.00924 z m -80.09375,0.15625 c -3.18962,1.81779 -9.54725,0.0753 -9.75001,5.34376 3.20125,-3.5723 10.08351,-2.5508 10.29361,0.7923 3.22037,2.13656 15.48429,-1.29306 6.74252,-0.936 -5.20246,0.96424 -5.99652,-2.68012 -7.28612,-5.20006 z m -13.46875,0.5 c -5.03823,3.22045 -0.89385,2.77406 0,0 z m 84.875,0.84375 c -4.17271,3.57178 8.06809,7.68266 0.88174,2.46688 -0.24052,-1.62496 2.50216,-2.28909 -0.88174,-2.46688 z m -90.75,0.46875 0.50119,0.31933 -0.50119,-0.31933 0,0 z m 38.09375,0.3125 c -3.73188,1.56712 -6.86067,1.11077 -1.60929,3.35898 2.76956,2.02118 3.24081,-1.90297 1.60929,-3.35898 z m 18.125,0.28125 c -3.39445,3.35214 2.93849,2.17587 0,0 z m 6,0 c 0.21572,3.46591 -9.70449,5.15008 -5.87936,7.3001 4.15099,-4.53067 9.20308,-7.08986 14.80888,-3.38119 3.24132,0.96491 15.86843,1.63619 7.20965,-0.7077 -6.25545,-0.67664 -9.67144,-2.47518 -16.13917,-3.21121 z m -62.96875,0.40625 c -4.45558,5.35562 9.7022,9.73412 6.75048,3.65963 -5.59939,2.84717 -3.44833,-2.42709 -6.75048,-3.65963 z m 6.78125,0.46875 c -2.87362,1.87593 0.60242,1.59547 0,0 z m 21.28125,0.34375 c -2.2751,-0.73351 -0.77691,1.07773 0,0 z m 84.28125,0.25 c -0.97526,2.18567 3.49062,0.79998 0,0 z m -1.625,0.5 c -4.7108,1.25753 2.37172,8.14844 -0.56189,1.73989 0.22657,-0.58487 1.629,-1.12629 0.56189,-1.73989 z m 3.84375,1.125 c -0.7028,1.83571 0.83459,10.23653 3.11862,7.51785 0.8619,-1.86418 -2.20838,-4.92465 -3.11862,-7.51785 z m -101.3125,0.84375 c -2.49283,0.25866 3.15604,0.36294 0,0 z m 107.15625,0.0625 c -2.99915,4.71558 2.88266,9.11068 3.30717,14.16442 1.59637,-5.59453 -2.69613,-9.2077 -2.30717,-13.41442 -0.33333,-0.25 -0.66667,-0.5 -1,-0.75 z m -106.0625,0.3125 c -4.78309,0.16926 2.35611,5.20527 3.19053,6.93755 3.69043,2.3077 3.59832,-1.33452 7.49105,-0.55883 4.28725,-5.56283 -9.27151,3.88657 -9.21873,-3.91675 0.90976,-4.14851 -0.84393,0.9154 -1.46285,-2.46197 z m 23.9375,1.15625 c -1.66002,1.95344 -11.80288,2.24527 -4.4002,3.01559 1.13049,-0.007 7.09278,-1.36853 4.4002,-3.01559 z m 61.125,0.0937 c -3.0004,4.46481 7.79345,4.06998 7.91666,8.88862 0.63263,-0.97517 -2.19772,-5.59096 -2.71486,-7.56118 -2.14602,-0.29327 0.59178,3.31661 -3.1536,0.83124 -0.96011,-0.30556 -1.95186,-1.0816 -2.0482,-2.15868 z m 8.3125,0.125 c -2.56527,1.02985 0.57226,3.85519 0,0 z m -41.71875,0.40625 c -5.74203,1.47822 7.02855,5.16799 1.09886,0.24037 -0.36629,-0.0801 -0.73257,-0.16025 -1.09886,-0.24037 z m -56.875,0.21875 c -3.22687,1.37199 -3.72273,4.3563 -0.42138,3.95716 1.07468,0.41407 2.27965,-4.09101 0.42138,-3.95716 z m 79.84375,0.28125 c -7.49368,2.86893 3.94659,3.36777 6.40084,5.0489 5.31458,1.68595 -0.74424,12.87045 5.6929,12.01361 -3.84008,-3.75039 -0.99218,-10.65783 -4.26009,-14.20732 0.49417,-4.01494 -7.73101,2.32714 -7.83365,-2.85519 z m -65.96875,0.1875 c -0.14469,0.34761 0.97115,-0.28513 0,0 z m 37.1875,0.15625 c -2.03535,1.98032 2.74548,0.79978 0,0 z m 51.5,0 c -0.81461,2.20484 -4.04358,3.5844 -0.73739,3.74727 1.47495,0.71916 3.98363,-2.54574 0.73739,-3.74727 z m -35.4375,0.0312 c -1.70298,2.09909 -9.05546,0.56689 -3.53701,3.70367 1.26617,0.29565 7.02315,-2.80736 3.53701,-3.70367 z m -65.28125,0.125 c 2.09282,1.47806 2.91547,-0.99953 0,0 z m 26.75,2.03125 c -2.72542,1.77482 -0.7975,8.49611 0.43065,2.47099 0.0308,-0.70793 0.607,-2.09999 -0.43065,-2.47099 z m 63.96875,0.8125 c -2.33931,2.52269 3.61814,1.77529 0,0 z m -16.5625,0.0312 c -3.51886,0.67182 -12.38826,1.57828 -3.96634,2.4935 5.72793,2.16108 2.61189,2.73634 3.96634,-2.4935 z m -22.25,0.1875 c -0.82329,1.42213 2.16659,-0.0744 0,0 z m -27.28125,0.0312 0.3125,0.0625 -0.3125,-0.0625 z m -33.71875,0.25 c -5.48091,2.39652 6.43215,11.84933 2.12858,2.94163 -0.42192,-1.15658 -1.24606,-2.10881 -2.12858,-2.94163 z m 57.75,0.46875 c -6.96389,-0.84174 1.61872,6.64972 3.23943,2.72533 -3.68204,1.02615 1.26165,-4.23674 -3.23943,-2.72533 l 0,0 z m 53.5625,0.28125 c 0.054,4.21668 2.81491,4.4173 0,0 z m -103.875,0.78125 c -2.43017,1.41903 4.45192,1.6633 -0.0313,1.90626 0.8831,8.36248 15.49093,5.42646 15.11433,0.68841 -4.07708,2.47614 -11.61232,3.55027 -12.30382,-0.77597 -1.37977,0.43014 -1.27057,-2.31321 -2.77925,-1.8187 z m 21.875,0.96875 c -9.14166,0.46324 5.24744,3.84085 3.81505,0.95491 -3.85971,1.43309 1.01737,-1.41948 -3.81505,-0.95491 z m 34.5,0.21875 c -0.89449,2.77634 10.54322,2.49907 3.21607,0.3579 -1.05658,-0.22409 -2.13489,-0.35779 -3.21607,-0.3579 z m -67.625,0.15625 c -2.54747,1.56051 0.72565,3.87373 0,0 z m 120.84375,0.0625 c -1.93196,0.61374 1.17455,2.71931 -0.49775,3.34492 1.30724,-0.28444 1.02139,-2.50568 0.49775,-3.34492 z m -98.96875,0.0937 c -2.67838,0.97867 2.40592,0.31648 0,0 z m 83.3125,0.46875 c -4.62897,0.68852 -2.70932,7.52697 0,0 z m 22.5,0 c -4.45064,3.86763 4.36053,3.83793 0,0 z m -34.65625,0.5625 c -1.87571,-0.74642 -5.78898,1.48922 -1.99552,2.18764 -4.00603,1.57097 12.12115,3.74093 3.77138,-0.17011 -0.569,-0.62864 -1.67764,-1.04043 -1.77586,-2.01753 z m -12.4375,0.5 c -2.32298,0.21856 -6.27482,4.32861 -2.90356,3.77358 0.531,-1.282 5.93278,-2.12261 2.90356,-3.77358 z m 33.125,0.125 c -3.79344,-0.0169 -11.63276,6.10006 -3.27354,3.57722 5.8829,-4.33955 6.76504,7.51131 8.7499,5.77919 -1.09132,-2.95587 -0.36955,-8.93129 -4.76727,-7.10264 l -0.40616,-0.67823 -0.30293,-1.57554 0,0 z m 9.53125,0 c 0.10647,1.10017 0.14482,1.49649 0,0 z m -66,0.75 c -1.01783,4.05628 3.4829,0.30409 0,0 z m -22.5625,0.0625 c -1.83619,0.31128 0.87907,0.15285 0,0 z m 87.28125,0.0937 c -2.02145,2.94909 2.38496,2.09039 0,0 z m -112.21875,0.0312 c -2.86575,1.54687 4.30474,0.1246 0,0 z m 28.8125,1.03125 c -4.92851,0.75294 -1.64177,3.19676 -5.8347,2.05466 -3.1082,-0.44893 -7.6293,2.43081 -1.74,2.49441 5.05217,2.49792 0.75576,-1.54222 5.45705,-1.18743 3.43099,0.38054 5.79187,-0.60915 2.11765,-3.36164 z m 80.6875,0.25 c -0.24654,2.06194 1.08374,0.0469 0,0 z m -56.3125,0.0312 c -7.33975,4.47112 8.29713,3.6675 9.96966,5.4791 5.00262,-2.71896 -9.36187,-2.60021 -9.96966,-5.4791 z m 63.96875,0.78125 c -1.71321,3.83776 1.40473,4.75891 2.8297,4.22328 -0.44579,2.69974 1.56032,7.12899 1.47728,1.71442 0.98816,-6.14873 -2.29945,-3.15353 -4.30698,-5.9377 z m -46.40625,0.0625 c -0.37385,5.03817 15.00442,0.87558 5.26796,0.63772 -1.73085,-0.22638 -3.62626,0.0192 -5.26796,-0.63772 z m 41.3125,0.6875 c -2.83588,7.26535 4.87803,0.73854 0,0 z m -118.53125,0.375 c 0.83914,1.59804 1.28918,0.45093 0,0 z m 4.5625,1.4375 c 0.57416,4.67931 10.59928,9.47445 12.85243,3.89897 -6.27621,3.65824 -8.01343,-2.86061 -12.85243,-3.89897 z m -8.28125,0.0312 c -1.6736,4.88624 6.86267,5.14072 1.41832,0.76261 l -0.66208,-0.45781 -0.75624,-0.3048 0,0 z m 19.90625,0.1875 c 0.4213,2.4235 2.61241,-0.33656 0,0 z m 90.71875,0.28125 c -1.48928,3.63629 4.98986,4.75694 0,0 z m -21.1875,0.125 c -4.16317,3.32183 4.93693,1.58996 0,0 z m 35.03125,0.90625 c -2.11655,4.18112 3.54421,7.10499 0,0 z m -65.90625,0.0312 c -3.38263,2.2803 2.6369,3.77009 0,0 z m -35.75,0.4375 c 1.42232,3.51147 10.49994,9.61276 11.34668,3.73178 -3.13803,-1.12926 -7.45125,0.7631 -10.00879,-3.33341 l -1.33789,-0.39837 0,0 z m 16.25,0.15625 c -5.88383,0.31879 1.43436,9.09316 0.59747,1.67468 l -0.14181,-1.01765 -0.45566,-0.65703 0,0 z m 43.84375,0.0937 c -4.27017,-0.26209 -6.64736,6.77481 -1.83728,2.33576 0.62965,-0.56506 3.05203,-1.24646 1.83728,-2.33576 z m 25,0.21875 c -4.33803,0.62603 -5.13776,6.6918 -0.61037,2.09454 0.49559,-0.50123 0.99854,-1.37496 0.61037,-2.09454 z m -12.59375,0.3125 c -2.88749,1.63489 4.23096,0.56336 0,0 z m 26.8125,0.46875 0.52899,0.4678 -0.52899,-0.4678 0,0 z m -30,0.1875 c -2.69863,1.94687 -1.43771,6.34323 1.32087,2.37231 3.81598,0.90732 7.39954,1.97454 2.42951,-1.52715 -1.03587,-1.70693 -4.80673,2.12904 -3.75038,-0.84516 z m -24.875,0.125 c -3.07415,2.23837 4.8509,-0.91831 0,0 z m 60.8125,0.15625 c -4.81765,2.29791 4.62585,3.24777 0,0 l 0,0 z m -11.96875,0.125 c -0.73095,1.95754 -3.93756,2.15758 -2.10459,3.46872 1.11072,-0.67099 2.35781,-2.07203 2.10459,-3.46872 z m -53.34375,0.4375 c -4.83288,2.73506 5.57674,1.67187 0,0 z m -58.46875,0.21875 c -4.14793,1.99312 -1.98336,5.97493 0,0 z m 29.65625,0.125 c 1.18465,2.52162 3.16223,-0.32824 0,0 z m 87.5,0.71875 c -1.80789,5.17078 4.52974,0.42864 0,0 z m -39.25,0.1875 c -2.02891,4.20819 11.38692,2.51058 2.67336,0.61531 -0.8618,-0.30835 -1.7543,-0.56247 -2.67336,-0.61531 z m 19.90625,0.21875 c -4.87769,2.76727 4.15491,9.98449 0.24255,2.58891 0.0137,-0.86718 -0.008,-1.74666 -0.24255,-2.58891 z m 9.5,0.21875 c -5.30632,2.00885 4.55464,11.83377 0.33501,3.9387 -0.52502,-1.49175 1.98123,-2.72897 -0.33501,-3.9387 z m -119.34375,0.59375 c -0.67221,2.98022 1.59197,13.19446 3.56829,11.85961 -0.14924,-4.10745 -0.68574,-8.69152 -3.56829,-11.85961 z m 74.625,0.0937 c -0.87745,3.02528 5.03439,-0.90033 -10e-6,10e-6 l 10e-6,-10e-6 z m 52.09375,0.375 c -4.20728,1.55697 -1.3552,3.59019 -0.32672,4.26932 3.90849,8.28962 1.07515,-2.81426 0.32672,-4.26932 z m 9.34375,0.1875 c -4.24954,0.2893 2.90513,1.69621 0,0 z m -57.25,0.125 c 1.17989,3.56845 -14.49115,5.61426 -4.89819,4.71514 2.81879,-0.34196 7.2553,-3.29704 8.14994,-4.06295 -1.06143,-0.32254 -2.15608,-0.49769 -3.25175,-0.65219 z m -32.96875,0.53125 c -3.28225,3.51004 3.17682,9.15628 5.68816,6.6742 3.74471,0.82584 5.2645,1.51171 8.48588,1.16468 4.28472,-4.38849 -5.73718,-3.22232 -8.20619,-3.92921 -3.9076,1.90427 -3.61451,-2.41983 -5.96785,-3.90967 z m 18.03125,0.21875 c -3.01943,5.59901 6.36383,-0.50468 0,0 z m -55.34375,0.1875 c -1.46592,1.14519 1.81424,1.08956 0,0 z m -1.96875,0.1875 c -4.01071,3.25108 -1.01472,5.02767 0,0 z m 8.6875,0.0937 c -3.72945,1.23468 2.14083,2.17069 0,0 z m 116.84375,0.0625 c -3.62027,2.04998 3.19038,4.41289 1.91313,7.49327 0.11358,-0.53037 0.63603,-8.25354 -1.91313,-7.49327 z m 3.03125,0.375 c 3.25902,5.81807 -1.53859,12.29661 4.36842,16.98063 -0.5059,8.17235 3.17034,-8.81075 0.0568,-2.332 -3.53875,-4.32872 -0.86441,-9.91835 -1.55186,-13.734 -0.82733,-0.59598 -1.83074,-0.98749 -2.87338,-0.91463 z m -103,0.375 c -6.47799,2.4895 8.15555,6.89563 0.92009,1.86243 -0.83725,-0.39512 0.20511,-1.80001 -0.92009,-1.86243 z m -13.15625,0.34375 c -5.86033,2.32977 8.31948,6.99862 0.90831,0.9318 l -0.24079,-0.65187 -0.66752,-0.27993 0,0 z m 121.5625,0.15625 c -4.19054,3.02972 2.96101,13.03905 0.33693,5.14752 -0.0559,-1.70324 0.62465,-3.57533 -0.33693,-5.14752 z m -43.65625,0.40625 c 0.4628,5.18485 6.86495,7.05337 8.07531,1.30689 -3.3585,1.38797 -5.6571,1.40333 -8.07531,-1.30689 z m -89.40625,0.25 c -1.80681,4.38583 9.68321,5.26473 2.51559,1.61607 -0.74301,-0.65286 -1.45052,-1.50879 -2.51559,-1.61607 z m 83.5625,0.0625 c -0.18194,1.59833 2.23834,0.26606 0,0 z m -1.875,0.375 c -7.95024,0.66354 3.47077,7.43153 4.5793,5.08239 -2.68164,-1.33497 -4.30777,-1.51962 -3.38287,-4.61944 l -1.19644,-0.46294 10e-6,-10e-6 z m -61.84375,0.78125 c -8.3741,2.89001 3.22637,3.72384 0,0 z m 14.34375,0.0625 c -4.8022,-0.91213 -5.41034,5.42586 -0.51757,1.824 0.65155,-0.16083 2.18108,-1.8039 0.51757,-1.824 z m 74.125,0.25 c -2.79783,1.2781 -6.2213,6.66037 -1.30506,2.83417 0.84033,-0.66089 1.56461,-1.70626 1.30506,-2.83417 z m 8.6875,0.4375 c -0.692,0.22089 1.6301,1.05279 0,0 z m 6.46875,1.71875 -0.57705,0.34156 0.57705,-0.34156 0,0 z m -56.65625,0.0625 c 1.5732,2.91786 13.13074,2.95546 5.41664,0.86287 -1.79869,-0.32725 -3.64081,-0.41591 -5.41664,-0.86287 z m -10.40625,0.9375 c -7.50382,2.54099 7.07388,3.92977 0,0 z m 60.125,0 c -1.92175,1.15232 2.64376,0.44787 0,0 z m -14.21875,0.0625 c -2.06157,0.42997 2.36124,1.47159 0,0 z m 12.84375,0.0312 c -3.77629,1.91415 2.5526,5.13058 3.41211,5.56003 0.86203,3.5394 2.51433,6.06394 1.67394,0.7303 0.0305,-3.23576 -2.88759,-4.60797 -5.08605,-6.29033 z m -26.375,0.25 c -3.72945,1.23468 2.14083,2.17069 0,0 z m 12.4375,0.21875 c -3.26421,-0.004 1.93011,4.96033 -1.71876,2.64293 0.54064,3.47176 6.05314,4.51311 2.9375,0.29458 1.58979,-1.0586 -1.07309,-1.89704 -1.21874,-2.93751 z m 21.375,0.125 c -2.27668,2.35894 1.1484,5.51984 1.94481,6.48893 2.88962,0.63956 0.58235,6.91872 2.121,1.00823 0.44304,-3.75626 -3.30911,-4.60512 -3.23156,-7.54856 l -0.83425,0.0514 0,0 z m -0.78125,0.0937 c -1.88147,0.35524 1.27056,2.66706 0,0 z m -13.15625,0.375 c -1.43309,2.70325 3.3426,5.48612 4.07676,6.08588 -1.62937,-4.90862 3.15237,-5.37662 -4.07676,-6.08588 z m -69.53125,0.4375 c -5.50719,0.1738 2.91072,3.81228 -10e-6,1e-5 l 10e-6,-1e-5 z m -14.34375,0.75 c -4.79173,4.01422 9.88396,5.03553 1.62976,2.00418 -0.763,-0.5172 -0.68122,-1.69082 -1.62976,-2.00418 z m -17.9375,0.0312 c 0.88757,3.39227 13.61791,7.34978 6.09674,2.49367 -1.95022,-1.00788 -3.9318,-2.03461 -6.09674,-2.49367 z m -6.21875,0.4375 c 1.28287,3.28108 -6.32946,0.3475 -0.35155,3.86596 2.84407,2.19497 10.26374,3.1181 3.06926,0.44522 -1.33492,-1.16584 -1.10456,-3.36466 -2.71771,-4.31118 z m 87.4375,0.3125 c -0.74371,4.98258 8.20051,8.28796 8.86783,2.22506 -3.51711,3.32611 -5.82532,-0.8736 -8.86783,-2.22506 z m -20.15625,0.25 c 1.32854,1.98537 5.12265,-0.0101 0,0 z m -0.84375,0.3125 c -0.67006,0.74498 1.43204,1.31144 0,0 z m -32.46875,0.3125 c -5.11464,-0.83347 -3.62765,5.70204 0.11225,1.32215 0.19048,-0.31821 0.67846,-1.29063 -0.11225,-1.32215 z m 47.375,0.4375 c -5.435,3.16043 5.37164,8.15004 0.68376,2.27677 l -0.22979,-1.19197 -0.45397,-1.0848 0,0 z m -61.15625,0.0937 c -6.4178,1.11098 -0.50398,6.78177 0,0 z m 55.71875,0.125 c -0.54937,4.86184 6.30553,-0.70104 0,0 z m -21.625,0.5 c -0.98816,17.15671 -0.021,34.38512 1.4107,51.46992 3.78163,7.91099 1.15955,-3.92745 0.45095,-6.95125 -1.24867,-6.38125 -0.1192,-12.93836 -0.93978,-19.38694 -0.54874,-7.58605 -0.6057,-15.20777 0.20312,-22.78797 -0.79778,-0.49744 -0.83844,-1.5706 -1.12499,-2.34376 z m 10.9375,1.34375 c -1.38635,5.29552 12.17473,2.5018 4.18749,1.59376 -1.19845,2.69255 -2.84345,-1.88591 -4.18749,-1.59376 z m 41.75,0.75 c -3.57945,-1.22764 -8.50508,5.5437 -2.24902,3.2776 1.04476,-0.2185 4.59118,-2.24982 2.24902,-3.2776 z m -50.28125,0.3125 c -1.09345,2.09466 0.51497,0.73188 0,0 z m 30.46875,1.78125 c -4.329,1.72914 2.63393,2.11729 0,0 z m -89.0625,0.0312 c -2.89232,1.5003 0.41919,4.37211 0,0 z m 26.65625,0.375 c -4.57846,3.6076 11.28933,4.59752 3.16787,1.83755 -1.16746,-0.43861 -1.80603,-1.83309 -3.16787,-1.83755 z m 40.8125,0.3125 c -1.31607,3.04443 5.87839,0.84352 0.16823,0.0442 l -0.16823,-0.0442 z m 48.84375,0.0625 c -6.96094,2.51109 6.02293,5.1045 3.06249,10.56251 2.66762,-2.59999 0.85604,-7.5466 -1.96068,-9.11478 0.71231,-1.56767 -0.42259,-1.27884 -1.10181,-1.44773 z m -43.125,0.46875 c 0.58921,4.44197 11.22304,4.68069 7.52091,2.62321 -2.83382,0.92552 -5.26602,-1.29727 -7.52091,-2.62321 z m 28.4375,0.0937 c -4.06174,0.50329 -0.0616,2.51232 -10e-6,1e-5 l 10e-6,-1e-5 z m -40.9375,0.3125 c -3.84336,2.267 3.84329,2.26708 0,0 z m -23.28125,0.0312 c -7.31707,0.33432 1.22342,5.72941 0.4955,0.0805 l -0.4955,-0.0805 0,0 z m 71.53125,0.125 c -1.14309,3.57357 5.54833,11.25299 3.60283,3.17738 -0.46195,-1.55264 -1.68881,-3.50256 -3.60283,-3.17738 z m -94.375,0.0312 c -8.71526,2.38377 9.55815,6.32593 1.23632,2.20114 -1.70224,-0.19323 0.51593,-2.34312 -1.23632,-2.20114 z m 73.78125,0.8125 c -0.36193,4.2079 6.9245,9.86805 7.81249,3.15626 -3.27659,3.54996 -5.00684,-2.41497 -7.81249,-3.15626 z m 35.34375,0.0312 c -5.23049,2.32048 3.62758,5.60159 2.03704,10.03915 2.45249,-4.79926 -0.36548,-7.45659 -2.03704,-10.03915 z m -126.625,0.3125 c -3.72945,1.23468 2.14083,2.17069 0,0 z m 26,0.0937 c -6.04649,4.5757 2.21765,3.47244 0,0 z m 106.4375,0.4375 c -4.56797,1.9248 3.34148,11.29529 1.74999,3.81251 -2.39076,-0.29656 0.60661,-3.25763 -1.74999,-3.81251 z m -28.9375,0.125 c -0.64993,5.12226 5.68472,3.52076 0,0 z m 35.28125,0.375 c -2.63777,-0.0157 -5.46503,6.50778 -1.46717,3.19831 -1.74118,1.96878 -2.77737,9.14876 -0.72034,2.9267 0.47992,-2.12155 1.34109,-4.13016 2.18751,-6.12501 z m -70.46875,0.84375 c -0.45288,3.09064 7.04304,1.53793 0.96183,0.19855 -0.31472,-0.0835 -0.6429,-0.12799 -0.96183,-0.19855 z m -62.21875,1 c -3.31526,2.57786 9.31674,2.98326 1.76684,0.34489 -0.56724,-0.20105 -1.18052,-0.22129 -1.76684,-0.34489 z m 68.53125,0.78125 c -3.84336,2.267 3.84329,2.26708 0,0 z m -2,0.90625 c -3.7349,-0.43219 -1.81211,1.91834 0,0 l 0,0 z m -45.34375,0.21875 c 1.79192,2.20424 3.57066,-0.82168 0,0 z m 2.34375,0.0625 c -0.7484,5.59666 13.51055,2.02348 4.77811,1.5655 -1.21379,-1.29352 -3.07412,-1.68046 -4.77811,-1.5655 z m 80.28125,0.125 c -3.80654,-0.64592 -8.86425,5.45553 -2.31753,3.37753 0.92407,-0.47703 4.60254,-2.22946 2.31753,-3.37753 z m -20.28125,0.6875 c -3.49322,1.89812 2.86334,1.34508 0,0 z m -27.8125,0.0312 c -3.50473,3.29353 4.34994,1.99513 0,0 z m -19.5,0.0312 c -7.77501,1.80513 1.63323,3.94652 0,0 z m 76.59375,0.3125 c -3.16971,1.40943 -7.62449,6.66487 -1.92227,3.62643 1.82569,2.92182 3.09589,12.5672 3.75377,3.86985 -1.1527,-2.90533 -3.66198,-3.95838 -1.8315,-7.49628 z m -51.8125,0.3125 c -7.25175,-0.21135 4.95635,4.0878 0,0 z m 2.125,0.0937 c 1.43339,2.60091 3.48593,-0.13868 0,0 z m 50.40625,0.34375 -0.0625,0.68728 0.0625,-0.68728 0,0 z m -119.375,0.125 c -3.35952,4.36881 -1.54004,14.8679 1.57467,16.27541 -1.22712,-5.27952 -2.26432,-10.66202 -1.57467,-16.27541 z m 19.78125,0.28125 c -8.9162,3.05598 11.15551,5.65526 1.1111,1.8184 -0.68266,-0.34556 -1.0217,-1.09892 -1.1111,-1.8184 z m 7.96875,0.65625 c -1.94327,3.20957 1.93377,2.44096 0,0 z m 47.90625,0.125 c -2.8144,7.81337 13.34581,0.0223 5.22704,1.37024 -1.50181,-1.36169 -3.60111,0.61808 -5.22704,-1.37024 z m 26.1875,0.15625 c -5.28774,1.47302 3.73863,9.04754 0.1697,2.42514 0.8594,-0.71797 0.61077,-1.76995 -0.1697,-2.42514 z m -13.21875,0.59375 c -0.94652,5.90309 6.27873,8.6868 7.80935,3.27778 -3.33986,2.52916 -5.38417,-1.02885 -7.80935,-3.27778 z m 42,0.0312 c -1.70197,3.17836 -1.3364,13.39445 0.22843,11.96741 0.34813,-3.98989 -0.40304,-7.97494 -0.22843,-11.96741 z m -64.5625,0.15625 c -2.01927,2.38501 3.92173,0.17087 0,0 z m 57.78125,0.28125 c -3.45262,0.2182 0.8953,2.07854 0,0 z m 9.09375,0.125 c -0.99826,0.29569 0.50793,1.73097 0,0 z m -7.96875,0.0312 c -6.01101,2.94866 1.92787,5.29737 0.40737,10.15453 3.12652,-3.99974 -0.26814,-6.90175 -0.40737,-10.15453 z m -12.875,0.34375 c -3.26835,0.19246 -3.87205,2.44825 -1.69892,2.93275 1.21393,6.00454 2.14001,1.06957 1.96511,-2.06719 l -0.26619,-0.86556 0,0 z m -103.53125,0.28125 c -2.81922,2.05804 -4.95247,0.69493 -0.48412,3.53889 7.5762,1.85132 3.61206,-1.05433 0.48412,-3.53889 z m 60.3125,0.875 c -1.14398,1.58887 -10.93234,3.78785 -5.49553,4.00046 -0.29092,-2.6974 6.91305,1.5012 5.49553,-4.00046 z m 59.78125,0.375 c -1.09311,1.63827 -0.30762,2.36685 0,0 z m -93.28125,0.90625 c -9.25055,1.92188 9.84806,4.00754 4.15604,0.91088 -1.42861,-0.10359 -2.74936,-0.69431 -4.15604,-0.91088 z m -32.5625,0.71875 -0.62252,0.37439 0.62252,-0.37439 0,0 z m 67.375,0.8125 c -0.15743,3.62227 7.08507,8.976 5.83223,4.059 -2.06872,-1.17545 -3.44141,-3.4305 -5.83223,-4.059 z m 62.90625,0.0625 c -4.18279,3.43455 3.48704,5.65146 0,0 z m -131.1875,0.8125 c -0.27278,4.03923 7.43494,-0.12071 0,0 z m 83.46875,0.125 c -3.50261,1.90088 2.88982,1.34332 0,0 z m 21.90625,0.15625 0.0625,0.65597 -0.0625,-0.65597 0,0 z m -84.5,0.40625 c -8.35053,3.6083 10.72014,3.99067 2.94418,1.47342 -1.07186,-0.0596 -3.16209,0.18452 -2.94418,-1.47342 z m 58.59375,0.0625 c -3.92263,0.9803 -2.84527,7.68357 0,0 z m 20.53125,0.375 c -5.05008,4.02642 5.21476,2.07619 4.29291,7.33224 2.6451,6.85615 2.46565,-4.64982 -0.3317,-6.03285 1.41642,-1.85217 -3.2112,-1.14302 -3.96121,-1.29939 z m -40.03125,1 c -0.94021,3.48064 4.39968,-0.91703 0,0 z m -49.8125,0.1875 c -5.78106,4.50354 5.34645,7.86349 4.41594,4.32764 -2.03544,-0.78171 -5.65759,-1.11133 -4.41594,-4.32764 z m 104.03125,0.15625 c -1.2139,1.02102 1.32713,1.62979 0,0 z m -0.59375,0.375 c -4.07734,2.42299 0.0776,15.60838 0.1493,5.65041 -0.64783,-1.92079 -1.60498,-3.74065 -0.1493,-5.65041 z m -17.40625,0.21875 c -5.55075,0.54378 2.88347,7.62803 -0.22895,1.61926 l 0.87971,-0.60745 -0.65076,-1.01181 0,0 z m -12.75,0.0625 c -3.31477,7.35194 9.39711,7.15861 6.62207,3.53451 -4.98,1.92375 -4.09647,-1.46826 -6.62207,-3.53451 z m -46.15625,0.46875 c -8.12467,-0.10082 0.42877,5.37226 2.96718,1.4895 -0.11288,-1.36136 -1.95368,-1.52416 -2.96718,-1.4895 z m 73.40625,0.1875 c -6.2683,0.53505 -0.62051,6.52703 0,0 z m -47.46875,0.15625 c -3.73255,0.66756 0.80662,2.25041 0,0 z m 3.34375,0.1875 c -4.41975,0.98142 1.49344,3.06487 0,0 z m 53.8125,0.125 c -3.55016,0.94738 3.64774,1.01052 0,0 z m -125.40625,0.6875 c -1.05072,1.06226 0.15871,2.57411 0,0 z m 7.875,0.1875 c -1.85609,5.04737 3.29743,2.53578 0,0 z m 15.21875,0 c -3.87242,3.35756 2.29519,4.20043 0,0 z m 113.59375,0.3125 c -3.9273,4.01044 -0.52181,4.74468 0,0 z m -5.90625,0.1875 c -2.49465,2.24378 4.28899,2.65424 0,0 z m -65.25,0.0937 c -2.72786,2.77921 4.48003,0.87169 0,0 z m 57.0625,0.59375 c -4.48567,0.49032 3.1125,8.68736 1.78253,8.15923 1.37223,-3.10237 0.34042,-7.10328 -1.78253,-8.15923 z m -51.21875,0.8125 c -2.66355,7.21634 6.62302,6.37432 7.71202,3.36839 -3.99875,0.69928 -5.70773,-0.53519 -7.71202,-3.36839 z m 12.75,1.0625 c -3.55698,2.69533 3.3372,6.81315 0.87256,1.31751 -0.16222,-0.39198 -0.17584,-1.36648 -0.87256,-1.31751 z m 43.8125,0.15625 c -3.84705,3.17123 1.33737,4.69414 0.65491,8.93103 1.07493,-3.4583 1.74205,-6.12941 -0.65491,-8.93103 z m -118.6875,0.84375 c -7.56998,1.06343 10.05774,2.36911 0,0 z m 25.25,0.0625 c -4.61271,0.71837 4.67771,0.70541 0,0 z m 71.84375,0.1875 c -1.08011,2.21309 0.43439,1.29913 0,0 z m 26.46875,0.5625 c -4.46017,3.51857 1.96813,6.60502 0,0 z m -104.0625,0.15625 c -6.61513,1.21827 8.2974,1.86711 0,0 z m 71.5625,0 c -7.44258,3.8447 6.5497,2.68158 4.11438,8.76062 1.91393,3.16886 1.51748,-7.70978 -1.76684,-7.69882 -0.33409,-0.91384 -1.36936,-1.77066 -2.34754,-1.0618 z m -80.625,0.1875 c -1.13831,2.15173 -1.27067,7.98868 1.78094,4.42235 2.63694,3.14422 6.53048,-0.55123 1.2186,-0.85942 -1.80818,-0.24675 -3.41077,-1.54618 -2.99954,-3.56293 z m 47.1875,0.6875 c -4.5539,2.2833 -0.40304,4.90226 0,0 z m -22.375,0.21875 c -4.61271,0.71837 4.67771,0.70541 0,0 z m 50.5,0.53125 c -4.17467,1.22744 3.31047,7.8936 0.85903,2.13689 1.72833,-0.57246 0.64005,-2.69205 -0.85903,-2.13689 z m 20,0.84375 c -0.31683,0.82863 -0.72925,1.90728 0,0 z m -2.25,0.78125 c -3.59619,0.48835 -7.83764,2.7091 -2.2296,2.98781 2.22984,2.64378 1.27584,9.87525 2.71227,2.8197 0.23916,-1.92105 0.3535,-4.00384 -0.48267,-5.80751 z m -45.96875,1 c -2.5821,3.72759 4.65115,8.30656 3.81275,4.04358 -1.78262,-0.73506 -3.05774,-2.31458 -3.81275,-4.04358 z m -53.90625,0.0625 c -0.78464,2.72861 2.98357,2.21895 0,0 z m 107.65625,0.21875 c -2.62221,2.62587 3.17158,1.69264 0,0 z m -84.875,0.125 c -4.50646,4.09128 2.4756,5.1183 4.53484,2.55529 7.74712,-2.4171 -4.97524,0.80355 -4.53484,-2.55529 z m 49.96875,0.0625 c -6.09457,2.40945 6.11183,6.1477 2.31249,10.53126 3.31601,-2.65035 0.41473,-7.65387 -1.03064,-10.32401 l -0.66218,-0.26401 -0.61967,0.0568 0,0 z m 31.4375,0.28125 c -4.90453,1.50324 3.73139,11.88553 1.69447,3.15148 -0.16578,-1.14412 -0.39505,-2.73368 -1.69447,-3.15148 z m -26.3125,0.25 c -3.7383,-0.75611 0.2959,3.31319 0,0 z m -12.1875,0.84375 c -3.44457,1.76475 4.0584,0.0719 0,0 z m 47.8125,0.1875 c -1.89913,2.77873 -0.85268,3.26094 0,0 z m -7.1875,0.4375 c -0.8873,1.94559 1.13006,1.21405 0,0 z m -110.8125,0.25 c -1.13477,3.05424 5.49458,2.11649 0.88796,0.44594 l -0.34229,-0.34343 -0.54567,-0.10251 0,0 z m 65.5625,0 c -3.90017,2.43472 4.68027,0.70415 0,0 z m -54.0625,0.1875 c -1.94325,3.20957 1.93377,2.44096 0,0 z m 82.125,0.34375 c -3.11497,2.44237 -2.12988,3.43321 0,0 z m -75.34375,0.46875 c -5.35728,5.24618 8.53233,6.77114 4.9216,3.16295 -2.19856,0.0484 -4.41534,-0.75986 -4.9216,-3.16295 z m -11.375,0.0625 c -6.57556,0.36355 6.81774,2.755 0.90442,0.0314 -0.30147,-0.0105 -0.60295,-0.0209 -0.90442,-0.0314 z m 108.03125,0.21875 c -6.42756,-0.12757 2.08775,8.19719 0.5481,0.99194 -0.20251,-0.276 -0.2881,-0.8135 -0.5481,-0.99194 z m -27.8125,0.0625 c -2.31326,2.07615 -6.59055,2.5354 -0.99519,3.11467 2.99873,1.13643 2.44299,9.58847 3.72464,2.60846 1.0122,-2.24992 -0.84421,-4.65074 -2.72945,-5.72313 z m -17.03125,0.1875 c -2.46788,4.79568 3.20527,2.68378 0,0 z m -37.03125,1.46875 c -1.5735,2.606 2.9853,1.57411 0,0 z m 87.09375,0.40625 c -3.01318,1.95798 0.98328,2.68758 0,0 z m -1.84375,0.40625 c -2.79326,3.32921 -0.59562,4.09624 0,0 z m -103.75,0.1875 c -2.09837,2.70837 3.80084,1.95154 0,0 z m 86.25,0.15625 c -4.05522,3.42023 -1.62004,5.42267 0,0 z m -61.78125,0.125 c -2.76366,-0.0579 -9.73834,3.47373 -4.26057,2.82184 0.84064,-0.82954 7.91745,-0.85424 4.26057,-2.82184 z m 72.09375,0.15625 c -3.39798,2.78986 -2.73731,6.78507 0,0 z m -100.4375,0.5625 c -2.46596,3.7777 6.08446,3.29427 0,0 z m 60.78125,0.25 c -6.32334,1.87597 -0.84479,5.31706 2.25917,1.43899 4.40965,1.01965 3.06163,-1.58474 -0.74262,-0.62095 l -1.03112,-0.26047 -0.48543,-0.55757 0,0 z m -5.90625,0.90625 c -1.22694,1.18644 1.00609,0.18628 0,0 z m -5.40625,0.0312 c -6.04165,-0.38318 0.14814,4.6053 0,0 z m 4.1875,0.0937 c -4.23478,2.36336 1.233,6.66018 0,0 z m 33.0625,0.0312 c -3.9432,0.0147 -7.43458,1.77617 -1.82714,2.3472 0.0549,6.88254 2.23157,1.31583 1.82714,-2.3472 z m 9.53125,0.15625 c -3.5939,3.40187 -1.26672,5.32506 0,0 z m 7,0.46875 c -4.4446,2.66914 2.8998,5.82772 3.31672,1.32739 -2.81975,3.49737 -1.95147,0.81987 -3.31672,-1.32739 z m -89.5,0.4375 c 0.1279,5.03047 5.48767,2.40423 0,0 z m 78.40625,0.0937 c -0.82784,-0.24141 -0.25308,1.45342 0,0 z m -97.71875,0.53125 c -0.0677,0.36005 0.49142,-0.15657 0,0 z m 94.84375,1.0625 c -1.48194,1.98539 4.83236,0.96382 2.34374,3.75001 2.95806,-3.00312 1.03411,-4.21897 -2.34374,-3.75001 z m -93.34375,0.0312 c -0.50037,2.96805 3.19151,0.89227 0,0 z m 7.59375,0.0312 c -4.87803,1.03255 5.42175,0.39985 0,0 z m 65.25,0.0312 c -0.0964,1.44749 1.93661,0.62826 0,0 z m -8.15625,0.0312 c 0.58656,2.41006 0.51861,7.62758 1.60216,1.92384 -0.12172,-0.84159 -0.61883,-1.85688 -1.60216,-1.92384 z m -37.8125,0.28125 c -1.46562,4.00533 1.73984,2.86569 0,0 z m 74.25,0 c -1.57924,1.67239 -0.14109,0.69374 0,0 z m 3.34375,0.3125 c -2.72628,0.62666 0.82038,2.06381 0,0 z m -48.09375,0.84375 c -0.31971,2.01266 1.70759,-0.26965 0,0 z m 20,0.15625 c -1.35327,3.95088 4.53936,-1.03373 0,0 z m -2.09375,0.0625 c -7.11364,-1.62537 2.42327,8.31855 0.43228,0.99834 -0.1704,-0.27198 -0.19416,-0.82907 -0.43228,-0.99834 z m -76.84375,0.15625 c -2.37376,2.22443 4.00416,2.2254 0,0 z m 26.6875,0 c -7.16393,0.0824 -1.8342,4.95442 1.01293,0.40034 l -0.30161,-0.2542 -0.71132,-0.14614 0,0 z m 75.59375,0.15625 c -4.09306,3.37929 5.50038,2.22178 0,0 z m 3.21875,0.8125 c -4.71046,2.01058 2.56485,4.68529 0.20796,1.9212 -4.02863,0.34082 2.3742,-1.62965 -0.20796,-1.9212 z m -90.8125,0.0625 c 0.87738,2.38726 3.28449,0.005 0,0 z m 78.28125,0.1875 c -0.86433,1.36349 -0.14106,2.25571 0,0 z m -30.96875,0.3125 c -5.84332,-0.45535 -4.61409,2.32827 0.13114,2.29515 2.93937,-0.50369 3.20631,-2.69917 -0.13114,-2.29515 z m 21.46875,0.5625 c -7.52563,5.22664 8.57726,1.64319 4.17932,1.06437 -1.59185,1.44115 -2.38167,-1.77013 -4.17932,-1.06437 z m 24.90625,0.65625 -0.28125,0.0312 0.28125,-0.0312 z m -78.625,0.28125 c 0.0632,2.83456 4.15882,0.68016 0,0 z m 69.03125,0.0625 c -4.86724,1.64742 -1.36072,5.53731 -0.0509,1.13236 0.0277,-0.13601 0.61492,-1.02382 0.0509,-1.13236 z m -80.84375,0.75 c -0.82229,-0.39013 -0.23172,0.40568 0,0 z m 77,0.21875 c -4.6164,1.32946 -4.22154,6.22278 -0.56676,1.38372 l 0.56676,-1.38372 0,0 z m -17.4375,0.21875 c -3.96488,3.06636 -1.59479,4.68572 0,0 z m 24.375,0.125 c -4.47347,3.56699 2.47337,3.04863 0,0 z m -96.46875,0.0937 c -5.40763,0.46752 -1.22407,4.33974 0,0 z m 7.9375,0.125 c -3.72019,2.01544 6.27323,0.90941 0,0 z m 2.65625,0.84375 c -1.17607,3.75659 7.81324,-1.50321 0.9735,0.0452 -0.3245,-0.0151 -0.649,-0.0302 -0.9735,-0.0452 z m 73.9375,-0.40625 c -6.94526,1.59183 1.42572,6.16051 0,0 z m -53.875,0.0625 c -3.72433,0.53825 -4.50727,2.72508 -0.30279,1.48599 1.85703,1.81927 4.11816,11.12186 4.27872,3.64027 -0.17532,-2.36119 -1.99818,-4.08216 -3.97593,-5.12626 z m 30.84375,0.0937 c -5.76713,4.3828 3.62662,3.47887 5.16637,0.8666 -1.72191,-0.23722 -3.62832,0.16821 -5.16637,-0.8666 z m -45.53125,0.0625 0.0937,0.0312 -0.0937,-0.0312 z m 2.8125,0.21875 c -2.15763,2.91613 4.95057,0.98134 0,0 z m -18.125,0.5 c -0.35216,1.95519 2.38098,-0.23571 0,0 l 0,0 z m 92.1875,0.90625 c -1.00054,0.26769 0.3592,2.39289 0,0 z m 4.0625,0.4375 c -3.27844,1.07037 1.99751,2.03283 0,0 z m -91.90625,0.0312 c -3.23405,0.64653 2.61368,0.9963 0,0 z m 15.84375,0.125 c -2.41785,1.51602 1.22495,2.07658 0,0 z m 57.625,0.21875 c -4.59713,2.05899 -2.49922,5.48954 0,0 z m -65.125,0.28125 c -0.61933,4.21839 10.21864,1.68138 2.18059,1.99382 -0.97142,-0.46976 -0.57508,-2.53702 -2.18059,-1.99382 z m 1.1875,2.34375 c 1.81117,2.54406 6.91978,1.2885 1.43787,0.30917 l -1.43787,-0.30917 0,0 z m -5.75,-1.875 c -4.32768,0.28235 0.59177,2.67878 0,0 z m 82.5,0.28125 c -5.43653,1.31064 1.24209,4.92268 0.0246,1.29516 0.59991,-0.0945 0.83598,-1.42154 -0.0246,-1.29516 z m -38.84375,0.46875 c -6.35917,2.90804 6.03157,4.85115 3.04054,0.88752 -2.12361,3.46415 -1.49038,-0.22511 -3.04054,-0.88752 l 0,0 z m 42.90625,0 c -3.50266,1.03914 0.81645,0.51474 0,0 z m -22.0625,0.0312 c -3.94841,-0.63769 -12.13164,8.89166 -4.36495,3.79878 1.56907,-1.05711 3.51292,-2.00594 4.36495,-3.79878 z m 14.15625,0.0312 c -2.14434,2.34367 3.03536,0.0774 0,0 z m -26.03125,0.75 c -3.43705,2.34898 0.80743,3.24182 0,0 z m -37.0625,0.0312 c -8.63309,1.39251 4.8731,2.26705 0,0 z m 59.5625,0 c -4.51268,1.79901 -2.60812,4.96392 0,0 z m -16.78125,0.0312 c -5.91503,2.47409 3.77283,1.30696 0,0 z m 13.03125,0.78125 c -3.00362,1.98069 -12.55058,5.81046 -10.05682,7.2806 4.04571,-1.30595 6.5097,-5.1519 10.05682,-7.2806 z m 3.125,1.53125 c -1.40557,2.6462 -11.75594,6.36489 -3.62079,3.8956 1.81431,-1.33643 5.80585,-1.52848 3.62079,-3.8956 z m -23.625,0.59375 c -1.64859,-0.20825 -1.81601,1.32304 0,0 z m -45,0.1875 c -3.73524,-1.23814 0.27824,1.80321 0,0 l 0,0 z m 57.5,0.0937 c 0.0158,0.62913 0.78484,-0.52724 0,0 z m -55.5625,0.0625 c 1.75618,3.35446 6.32612,0.37219 0,0 z m 40.09375,0.78125 c -3.68003,1.79203 -4.33449,6.07107 0.30895,2.24322 3.41475,-0.5776 2.19289,-1.54994 -0.30895,-2.24322 z m -33.3125,0.40625 c -5.18242,0.49634 -0.98357,3.53192 0,0 l 0,0 z m 9.84375,0.21875 c 4.42518,3.88286 -8.68319,0.75658 -0.65014,3.3838 3.25408,0.67641 7.44552,3.46338 3.52867,-1.66054 -0.63944,-0.7078 -1.67768,-2.33159 -2.87853,-1.72326 z m -5.53125,2.3125 c -2.93967,1.0609 1.03254,1.33573 0,0 z m 32.75,0.0625 c -4.84526,5.10649 7.42117,0.31911 0,0 z m -18.21875,6 c -2.86578,1.54688 4.30474,0.12459 0,0 z"
           id="path4906"
           inkscape:connector-curvature="0" />
      </g>
      <path
         id="rect3232"
         d="m 307.85714,169.95089 -273.71875,-19.65625 0,-0.15625 c -0.16963,0.0231 -0.35949,0.0625 -0.53125,0.0625 -5.49629,0 -9.9375,-11.96861 -9.9375,-26.6875 0,-14.71889 4.44121,-26.65623 9.9375,-26.65625 0.17176,0 0.36162,0.0082 0.53125,0.03125 l 0,-0.15625 273.75,-19.65625 c -2.39602,14.17238 -3.75,29.87699 -3.75,46.4375 0,16.54668 1.3265,32.27436 3.71875,46.4375 z"
         style="fill:#000000;fill-opacity:1;fill-rule:nonzero;stroke:none"
         inkscape:connector-curvature="0" />
      <path
         sodipodi:nodetypes="ccsccsc"
         id="path3241"
         d="m 319.20947,70.67094 -11.65625,6.5625 c -2.07233,14.37068 -3.21874,30.09144 -3.21875,46.59375 0,17.48563 1.31086,34.07654 3.625,49.125 l 11.375,6.8125 c -1.6142,-15.30426 -2.53125,-37.74647 -2.53125,-54.9375 10e-6,-16.89172 0.85195,-39.07 2.40625,-54.15625 z"
         style="fill:url(#linearGradient3078);fill-opacity:1;fill-rule:nonzero;stroke:none"
         inkscape:connector-curvature="0" />
      <path
         style="fill:url(#linearGradient3080);fill-opacity:1;fill-rule:nonzero;stroke:none"
         d="m 375.99805,48.9222 -15.89889,-0.15501 c -16.2328,34.68768 -9.69095,108.185 -2.77573,150.16597 l 18.09251,0.095 C 363.4984,164.17906 365.43916,74.94304 375.99805,48.9222 z"
         id="path4894"
         sodipodi:nodetypes="ccccc"
         inkscape:connector-curvature="0" />
      <path
         sodipodi:nodetypes="cccsccsc"
         transform="matrix(1,0,0,0.903096,13,-114.696)"
         style="fill:url(#linearGradient3082);fill-opacity:1;fill-rule:nonzero;stroke:none;filter:url(#filter5184)"
         d="m 295.85714,315.93375 -273.71875,-24.63911 0,-0.15625 c -0.16963,0.0231 -0.35949,0.0625 -0.53125,0.0625 -5.49629,0 -9.9375,-11.96861 -9.9375,-26.6875 l 279.269,-4.15652 c -2.39602,14.17238 1.19975,-12.40399 1.19975,4.15652 0,16.54668 1.3265,37.25722 3.71875,51.42036 z"
         id="path5108"
         inkscape:connector-curvature="0" />
      <path
         sodipodi:nodetypes="cc"
         id="path5192"
         d="M 28.498067,103.56873 307.09814,85.89106"
         style="fill:none;stroke:#f9f9f9;stroke-width:4;stroke-linecap:butt;stroke-linejoin:miter;stroke-miterlimit:4;stroke-opacity:1;stroke-dasharray:none;filter:url(#filter5214)"
         inkscape:connector-curvature="0" />
    </g>
  </g>
</svg>
